<?xml version="1.0" encoding="UTF-8" standalone="no"?>
<svg
   xmlns:dc="http://purl.org/dc/elements/1.1/"
   xmlns:cc="http://creativecommons.org/ns#"
   xmlns:rdf="http://www.w3.org/1999/02/22-rdf-syntax-ns#"
   xmlns:svg="http://www.w3.org/2000/svg"
   xmlns="http://www.w3.org/2000/svg"
   xmlns:sodipodi="http://sodipodi.sourceforge.net/DTD/sodipodi-0.dtd"
   xmlns:inkscape="http://www.inkscape.org/namespaces/inkscape"
   id="licences"
   viewBox="0 0 68.582711 24"
   version="1.1"
   sodipodi:docname="by-nc-sa.svg"
   width="68.58271"
   height="24"
   inkscape:version="0.92.4 (5da689c313, 2019-01-14)">
  <metadata
     id="metadata28">
    <rdf:RDF>
      <cc:Work
         rdf:about="">
        <dc:format>image/svg+xml</dc:format>
        <dc:type
           rdf:resource="http://purl.org/dc/dcmitype/StillImage" />
        <dc:title></dc:title>
      </cc:Work>
    </rdf:RDF>
  </metadata>
  <sodipodi:namedview
     pagecolor="#ffffff"
     bordercolor="#666666"
     borderopacity="1"
     objecttolerance="10"
     gridtolerance="10"
     guidetolerance="10"
     inkscape:pageopacity="0"
     inkscape:pageshadow="2"
     inkscape:window-width="1920"
     inkscape:window-height="1017"
     id="namedview26"
     showgrid="false"
     fit-margin-top="0"
     fit-margin-left="0"
     fit-margin-right="0"
     fit-margin-bottom="0"
     inkscape:zoom="2.8416667"
     inkscape:cx="-93.245945"
     inkscape:cy="21"
     inkscape:window-x="3832"
     inkscape:window-y="515"
     inkscape:window-maximized="1"
     inkscape:current-layer="licences" />
  <defs
     id="defs4">
    <style
       id="style2">.cls-1{fill:#e7d8fe;}.cls-2{fill:#fff;}.cls-3,.cls-4{fill:#6e3ebb;}.cls-4{fill-rule:evenodd;}</style>
  </defs>
  <path
     id="path3817"
     class="cls-1"
     d="m 1.9485673,0.25719319 64.7712907,0.1142856 c 0.90857,0 1.714283,-0.131428 1.714283,1.80571041 l -0.08,21.3313828 H 0.31428505 V 2.1029036 c 0,-0.9599976 0.0914284,-1.84571041 1.63428225,-1.84571041 z"
     inkscape:connector-curvature="0"
     style="fill:#e7d8fe;stroke-width:0.57142735" />
  <path
     id="path5906"
     class="cls-2"
     d="m 19.725673,11.171456 a 7.7942692,7.7942692 0 0 1 -15.5828246,0 v 0 a 7.7942692,7.7942692 0 0 1 15.5828246,0 z"
     inkscape:connector-curvature="0"
     style="fill:#ffffff;stroke-width:0.57142735" />
  <circle
     id="circle128"
     class="cls-2"
     cx="29.577078"
     cy="8.697176"
     r="6.1371298"
     style="fill:#ffffff;stroke-width:0.57142735" />
  <path
     id="path6334"
     class="cls-2"
     d="m 65.474147,8.571461 a 6.0514157,6.0514157 0 0 1 -12.097118,0 v 0 a 6.0514157,6.0514157 0 0 1 12.097118,0 z"
     inkscape:connector-curvature="0"
     style="fill:#ffffff;stroke-width:0.57142735" />
  <path
     id="path6372"
     class="cls-2"
     d="m 50.171322,8.571461 a 5.7142736,5.7142736 0 1 1 -11.382832,0 v 0 a 5.7142736,5.7142736 0 1 1 11.382832,0 z"
     inkscape:connector-curvature="0"
     style="fill:#ffffff;stroke-width:0.57142735" />
  <path
     id="path120"
     class="cls-3"
     d="M 67.285572,5.0793245e-5 H 1.2857116 A 1.2857116,1.2857116 0 0 0 0,1.2857628 V 23.708572 A 0.29142795,0.29142795 0 0 0 0.29142795,24 H 68.291284 a 0.29142795,0.29142795 0 0 0 0.291428,-0.291428 V 1.2857628 A 1.2857116,1.2857116 0 0 0 67.285572,5.0793245e-5 Z M 1.2857116,0.57147879 H 67.285572 A 0.70285566,0.70285566 0 0 1 67.999856,1.2857628 V 16.840015 H 20.817098 a 10.142836,10.142836 0 0 1 -17.7656759,0 H 0.57142736 V 1.2857628 A 0.70285566,0.70285566 0 0 1 1.2857116,0.57147879 Z"
     inkscape:connector-curvature="0"
     style="fill:#6e3ebb;stroke-width:0.57142735" />
  <path
     id="path5708"
     class="cls-3"
     d="m 18.285675,4.828612 a 8.6285526,8.6285526 0 0 1 2.594281,6.342844 8.4971251,8.4971251 0 0 1 -2.548566,6.285701 8.8056957,8.8056957 0 0 1 -6.388558,2.657137 A 8.5714102,8.5714102 0 0 1 5.6571309,17.480013 8.6114105,8.6114105 0 0 1 3.0228507,11.194313 8.7485526,8.7485526 0 0 1 5.6457024,4.828612 8.4971251,8.4971251 0 0 1 11.931403,2.2343324 8.6056959,8.6056959 0 0 1 18.285675,4.828612 Z M 6.8571283,5.971467 a 7.1314134,7.1314134 0 0 0 -2.194281,5.18856 7.0285566,7.0285566 0 0 0 2.171424,5.142847 7.0514137,7.0514137 0 0 0 5.1428467,2.171423 7.1542706,7.1542706 0 0 0 5.165702,-2.182852 6.8228427,6.8228427 0 0 0 2.102853,-5.142847 A 7.0742707,7.0742707 0 0 0 17.14282,5.977181 7.0456994,7.0456994 0 0 0 11.965689,3.8457572 6.9199854,6.9199854 0 0 0 6.8114142,5.98861 Z m 3.7942787,4.314276 A 1.0742835,1.0742835 0 0 0 9.6514078,9.554316 q -1.1828539,0 -1.1828539,1.594282 c 0,1.057141 0.3942841,1.588569 1.1828539,1.588569 a 1.1428547,1.1428547 0 0 0 1.1142832,-0.737141 l 1.091427,0.571427 A 2.525709,2.525709 0 0 1 9.5142658,13.960022 2.5771375,2.5771375 0 0 1 7.5828411,13.217166 2.7942798,2.7942798 0 0 1 6.8571283,11.171456 2.737137,2.737137 0 0 1 7.6056982,9.142889 2.5085661,2.5085661 0 0 1 9.468551,8.394318 2.4799947,2.4799947 0 0 1 11.83426,9.714316 Z m 5.142845,0 A 1.0628549,1.0628549 0 0 0 14.811397,9.554316 c -0.799998,0 -1.205712,0.531428 -1.205712,1.594282 0,1.062856 0.405714,1.588569 1.205712,1.588569 a 1.1085691,1.1085691 0 0 0 1.091426,-0.737141 l 1.142856,0.571427 a 2.5199947,2.5199947 0 0 1 -2.337139,1.388569 2.5542803,2.5542803 0 0 1 -1.925709,-0.742856 2.7714227,2.7714227 0 0 1 -0.725713,-2.034282 2.7542799,2.7542799 0 0 1 0.708569,-2.039995 2.4971376,2.4971376 0 0 1 1.868567,-0.748571 2.4742805,2.4742805 0 0 1 2.359995,1.319998 z"
     inkscape:connector-curvature="0"
     style="fill:#6e3ebb;stroke-width:0.57142735" />
  <path
     id="path132"
     class="cls-3"
     d="M 31.35422,6.925751 A 0.42285625,0.42285625 0 0 0 30.925649,6.49718 h -2.708566 a 0.42857052,0.42857052 0 0 0 -0.428571,0.428571 v 2.708565 h 0.782856 v 3.211422 h 2.057139 V 9.634316 h 0.754284 V 6.925751 Z"
     inkscape:connector-curvature="0"
     style="fill:#6e3ebb;stroke-width:0.57142735" />
  <circle
     id="circle134"
     class="cls-3"
     cx="29.571365"
     cy="5.2114687"
     r="0.92571229"
     style="fill:#6e3ebb;stroke-width:0.57142735" />
  <path
     id="path136"
     class="cls-4"
     d="m 29.565652,1.93719 a 6.3199867,6.3199867 0 0 0 -4.662847,1.919996 6.5028434,6.5028434 0 0 0 -1.959996,4.714275 6.3714152,6.3714152 0 0 0 1.959996,4.668562 6.3657008,6.3657008 0 0 0 4.662847,1.954281 6.5428432,6.5428432 0 0 0 4.71999,-1.977138 6.2857009,6.2857009 0 0 0 1.914281,-4.645705 6.4171292,6.4171292 0 0 0 -1.914281,-4.714275 6.4057007,6.4057007 0 0 0 -4.71999,-1.919996 z m 0,1.1942832 a 5.1999889,5.1999889 0 0 1 3.828564,1.5885678 5.1999889,5.1999889 0 0 1 1.611424,3.85142 5.0628464,5.0628464 0 0 1 -1.559997,3.794278 5.3314172,5.3314172 0 0 1 -3.862848,1.622854 5.2285604,5.2285604 0 0 1 -3.834279,-1.611425 5.1885605,5.1885605 0 0 1 -1.611424,-3.805707 5.2914174,5.2914174 0 0 1 1.628568,-3.845705 5.1428462,5.1428462 0 0 1 3.817135,-1.5942828 z"
     inkscape:connector-curvature="0"
     style="fill:#6e3ebb;fill-rule:evenodd;stroke-width:0.57142735" />
  <path
     id="path6338"
     class="cls-3"
     d="m 59.382731,1.93719 a 6.3314152,6.3314152 0 0 0 -4.662847,1.919996 6.4799863,6.4799863 0 0 0 -1.954281,4.714275 6.3885579,6.3885579 0 0 0 1.954281,4.674276 6.3771294,6.3771294 0 0 0 4.662847,1.954281 6.5428432,6.5428432 0 0 0 4.742847,-1.971424 6.2857009,6.2857009 0 0 0 1.891425,-4.657133 6.5657004,6.5657004 0 0 0 -6.634272,-6.634271 z m 0,1.1885688 a 5.1828462,5.1828462 0 0 1 3.828563,1.5942822 5.1771319,5.1771319 0 0 1 1.611426,3.85142 5.0514179,5.0514179 0 0 1 -1.559997,3.794278 5.3199887,5.3199887 0 0 1 -3.834277,1.611425 5.2457032,5.2457032 0 0 1 -3.834278,-1.605711 5.3428459,5.3428459 0 0 1 0,-7.651412 5.1428462,5.1428462 0 0 1 3.834278,-1.5942822 z"
     inkscape:connector-curvature="0"
     style="fill:#6e3ebb;stroke-width:0.57142735" />
  <path
     id="path6340"
     class="cls-3"
     d="m 56.445595,7.622892 a 2.8171369,2.8171369 0 0 1 2.908565,-2.55428 c 2.114282,0 3.428564,1.531425 3.428564,3.582849 a 3.3657072,3.3657072 0 0 1 -3.428564,3.54285 2.8571368,2.8571368 0 0 1 -2.925708,-2.588566 h 1.668568 c 0.05142,0.891426 0.62857,1.205712 1.45714,1.205712 0.942855,0 1.554283,-0.874284 1.554283,-2.211425 0,-1.337139 -0.531429,-2.148566 -1.519998,-2.148566 A 1.3085687,1.3085687 0 0 0 58.09702,7.622892 h 0.485713 L 57.268451,8.937174 55.954167,7.622892 Z"
     inkscape:connector-curvature="0"
     style="fill:#6e3ebb;stroke-width:0.57142735" />
  <path
     id="path45"
     class="cls-3"
     d="M 49.182753,3.8629004 A 6.3885579,6.3885579 0 0 0 44.474191,1.93719 6.2857009,6.2857009 0 0 0 39.811344,3.8629004 6.474272,6.474272 0 0 0 37.857063,8.571461 a 6.3714152,6.3714152 0 0 0 1.954281,4.668562 6.348558,6.348558 0 0 0 4.662847,1.959995 6.5428432,6.5428432 0 0 0 4.742847,-1.971424 6.2857009,6.2857009 0 0 0 1.891425,-4.657133 6.3771294,6.3771294 0 0 0 -1.92571,-4.7085606 z m -0.82857,8.4971246 a 5.3314172,5.3314172 0 0 1 -3.862848,1.622853 5.2457032,5.2457032 0 0 1 -3.834279,-1.60571 5.325703,5.325703 0 0 1 -1.314283,-5.571417 l 1.754283,0.777141 h -0.125714 v 0.782855 h 0.617141 c 0,0.114285 0,0.222857 0,0.337143 v 0.188571 h -0.617141 v 0.782855 h 0.742855 a 3.0742792,3.0742792 0 0 0 0.622856,1.445711 3.319993,3.319993 0 0 0 2.702852,1.262854 3.7142779,3.7142779 0 0 0 1.714281,-0.422856 l -0.262855,-1.228569 a 3.1257077,3.1257077 0 0 1 -1.26857,0.285714 1.8514247,1.8514247 0 0 1 -1.428568,-0.571427 1.714282,1.714282 0 0 1 -0.365714,-0.771427 h 2.411425 l 3.428563,1.519997 a 5.1771319,5.1771319 0 0 1 -0.914284,1.165712 z M 44.04562,8.891461 Z m 2.062854,-0.525714 h 0.09714 V 7.582892 H 44.325619 L 43.56562,7.240036 A 1.4914255,1.4914255 0 0 1 43.799906,6.85718 1.6799965,1.6799965 0 0 1 45.14276,6.285752 3.2914216,3.2914216 0 0 1 46.371329,6.554323 L 46.6799,5.291468 A 4.1885625,4.1885625 0 0 0 45.017045,4.96004 3.3371357,3.3371357 0 0 0 42.45705,6.102896 3.1599932,3.1599932 0 0 0 42.085624,6.634323 L 39.92563,5.634325 a 6.1714155,6.1714155 0 0 1 0.74857,-0.914284 5.1428462,5.1428462 0 0 1 3.817135,-1.5885678 5.1999889,5.1999889 0 0 1 3.828563,1.5885678 5.1999889,5.1999889 0 0 1 1.594282,3.85142 5.6514167,5.6514167 0 0 1 -0.171428,1.411426 z"
     inkscape:connector-curvature="0"
     style="fill:#6e3ebb;stroke-width:0.57142735" />
  <path
     id="path140"
     class="cls-2"
     d="m 27.657084,18.714297 a 2.5657089,2.5657089 0 0 1 0.491428,0.04571 1.1428547,1.1428547 0 0 1 0.382856,0.154286 0.77714122,0.77714122 0 0 1 0.251428,0.291428 1.0342835,1.0342835 0 0 1 0.08571,0.445712 0.8285697,0.8285697 0 0 1 -0.131427,0.474285 0.88571243,0.88571243 0 0 1 -0.382857,0.314285 0.92571229,0.92571229 0 0 1 0.525713,0.354286 1.0342835,1.0342835 0 0 1 0.171428,0.605713 1.0628549,1.0628549 0 0 1 -0.114286,0.497141 0.94285515,0.94285515 0 0 1 -0.297142,0.337143 1.3199972,1.3199972 0 0 1 -0.434284,0.199998 2.0342815,2.0342815 0 0 1 -0.491428,0.06286 h -1.839996 v -3.78285 z m -0.108572,1.531425 a 0.63428437,0.63428437 0 0 0 0.371429,-0.108571 0.40571342,0.40571342 0 0 0 0.142856,-0.342857 0.42285625,0.42285625 0 0 0 -0.05142,-0.217142 0.30857077,0.30857077 0 0 0 -0.125715,-0.148572 0.46857044,0.46857044 0 0 0 -0.182857,-0.06857 1.33714,1.33714 0 0 0 -0.217141,0 h -0.777142 v 0.885712 z m 0.05143,1.605711 a 1.0514263,1.0514263 0 0 0 0.234285,-0.02857 0.53142745,0.53142745 0 0 0 0.194285,-0.07429 0.44571334,0.44571334 0 0 0 0.137143,-0.154285 0.50857035,0.50857035 0 0 0 0.05143,-0.245715 0.47999899,0.47999899 0 0 0 -0.165713,-0.411426 0.68571283,0.68571283 0 0 0 -0.434285,-0.125715 h -0.908569 v 1.039998 z"
     inkscape:connector-curvature="0"
     style="fill:#ffffff;stroke-width:0.57142735" />
  <path
     id="path142"
     class="cls-2"
     d="m 29.199938,18.714297 h 0.931427 l 0.885713,1.491426 0.879997,-1.491426 h 0.925713 l -1.394283,2.331424 v 1.451425 h -0.839999 v -1.474283 z"
     inkscape:connector-curvature="0"
     style="fill:#ffffff;stroke-width:0.57142735" />
  <path
     id="path146"
     class="cls-2"
     d="m 56.251309,21.560005 a 0.61714155,0.61714155 0 0 0 0.182857,0.217142 0.89142674,0.89142674 0 0 0 0.26857,0.12 1.1428547,1.1428547 0 0 0 0.314286,0.04 h 0.24 a 0.69142712,0.69142712 0 0 0 0.239999,-0.07429 0.57142736,0.57142736 0 0 0 0.182857,-0.142856 0.39428488,0.39428488 0 0 0 0.07429,-0.234285 0.34285642,0.34285642 0 0 0 -0.09714,-0.251429 0.93714092,0.93714092 0 0 0 -0.257143,-0.159999 2.6857087,2.6857087 0 0 0 -0.359999,-0.108571 L 56.634169,20.85715 a 3.5314212,3.5314212 0 0 1 -0.417141,-0.131429 1.5542824,1.5542824 0 0 1 -0.36,-0.194285 1.0457121,1.0457121 0 0 1 -0.257143,-0.308571 0.94285515,0.94285515 0 0 1 -0.09714,-0.439998 1.0285693,1.0285693 0 0 1 0.125714,-0.508571 1.1428547,1.1428547 0 0 1 0.325713,-0.354286 1.4685683,1.4685683 0 0 1 0.457142,-0.217142 1.9142817,1.9142817 0 0 1 0.50857,-0.06857 2.3257094,2.3257094 0 0 1 0.571428,0.06857 1.3885685,1.3885685 0 0 1 0.485713,0.217142 1.0742835,1.0742835 0 0 1 0.337143,0.377143 1.211426,1.211426 0 0 1 0.125713,0.571427 h -0.811426 a 0.65142719,0.65142719 0 0 0 -0.06857,-0.279999 0.53142745,0.53142745 0 0 0 -0.160001,-0.177143 0.73714129,0.73714129 0 0 0 -0.22857,-0.09143 1.4857111,1.4857111 0 0 0 -0.285714,0 h -0.2 a 0.64571292,0.64571292 0 0 0 -0.182857,0.07429 0.50285608,0.50285608 0 0 0 -0.131428,0.137143 0.35999924,0.35999924 0 0 0 -0.05143,0.199999 0.3257136,0.3257136 0 0 0 0.04,0.177142 0.4114277,0.4114277 0 0 0 0.165713,0.131428 2.3828521,2.3828521 0 0 0 0.342857,0.114286 l 0.571428,0.148571 0.291427,0.08 a 1.1428547,1.1428547 0 0 1 0.371429,0.177142 1.1028548,1.1028548 0 0 1 0.325713,0.325713 0.95999801,0.95999801 0 0 1 0.131428,0.52 1.2514259,1.2514259 0 0 1 -0.09714,0.485712 1.085712,1.085712 0 0 1 -0.302857,0.382857 1.4742825,1.4742825 0 0 1 -0.491428,0.251428 2.4742805,2.4742805 0 0 1 -1.291426,0 1.5199968,1.5199968 0 0 1 -0.514284,-0.24 1.1428547,1.1428547 0 0 1 -0.359999,-0.422856 1.2228545,1.2228545 0 0 1 -0.125714,-0.571427 h 0.805713 a 0.67999856,0.67999856 0 0 0 0.06857,0.26857 z"
     inkscape:connector-curvature="0"
     style="fill:#ffffff;stroke-width:0.57142735" />
  <path
     id="path148"
     class="cls-2"
     d="m 60.942728,18.714297 1.411426,3.782849 h -0.862855 l -0.285714,-0.845713 h -1.41714 l -0.297143,0.845713 h -0.834284 l 1.42857,-3.782849 z m 0.04571,2.319995 -0.48,-1.388569 v 0 l -0.508571,1.388569 z"
     inkscape:connector-curvature="0"
     style="fill:#ffffff;stroke-width:0.57142735" />
  <path
     id="path152"
     class="cls-2"
     d="m 41.439912,18.714297 1.57714,2.537138 v 0 -2.537138 h 0.782856 v 3.782849 h -0.822856 l -1.57714,-2.531422 v 0 2.531422 h -0.78857 v -3.782849 z"
     inkscape:connector-curvature="0"
     style="fill:#ffffff;stroke-width:0.57142735" />
  <path
     id="path154"
     class="cls-2"
     d="m 46.971329,19.720009 a 0.94285515,0.94285515 0 0 0 -0.188571,-0.211428 0.97142647,0.97142647 0 0 0 -0.251427,-0.137143 0.84571248,0.84571248 0 0 0 -0.291429,-0.05143 0.95999801,0.95999801 0 0 0 -0.479999,0.10857 0.97714078,0.97714078 0 0 0 -0.319999,0.291429 1.3714257,1.3714257 0 0 0 -0.177142,0.417142 2.2057096,2.2057096 0 0 0 -0.05143,0.48 2.0514242,2.0514242 0 0 0 0.05143,0.462855 1.3028544,1.3028544 0 0 0 0.177142,0.405714 0.97714078,0.97714078 0 0 0 0.319999,0.291427 1.0285693,1.0285693 0 0 0 0.479999,0.108571 0.77714122,0.77714122 0 0 0 0.571427,-0.234285 1.0914262,1.0914262 0 0 0 0.262857,-0.617141 h 0.805713 a 2.0628528,2.0628528 0 0 1 -0.165714,0.645713 1.5085682,1.5085682 0 0 1 -0.34857,0.485713 1.4457112,1.4457112 0 0 1 -0.508571,0.308571 1.9257102,1.9257102 0 0 1 -0.639999,0.108571 1.8971388,1.8971388 0 0 1 -0.782855,-0.154286 1.6228537,1.6228537 0 0 1 -0.571428,-0.417141 1.8285675,1.8285675 0 0 1 -0.365713,-0.622856 2.2285667,2.2285667 0 0 1 -0.125714,-0.771426 2.3771378,2.3771378 0 0 1 0.125714,-0.788571 1.857139,1.857139 0 0 1 0.365713,-0.62857 1.651425,1.651425 0 0 1 0.571428,-0.42857 1.8971388,1.8971388 0 0 1 0.782855,-0.154286 2.0114243,2.0114243 0 0 1 0.571428,0.09143 1.6571393,1.6571393 0 0 1 0.497141,0.262857 1.399997,1.399997 0 0 1 0.365714,0.42857 1.5828537,1.5828537 0 0 1 0.177142,0.571428 h -0.765712 a 0.68571283,0.68571283 0 0 0 -0.09143,-0.251428 z"
     inkscape:connector-curvature="0"
     style="fill:#ffffff;stroke-width:0.57142735" />
</svg>
