<?xml version="1.0" encoding="UTF-8" standalone="no"?>
<svg
   xmlns:dc="http://purl.org/dc/elements/1.1/"
   xmlns:cc="http://creativecommons.org/ns#"
   xmlns:rdf="http://www.w3.org/1999/02/22-rdf-syntax-ns#"
   xmlns:svg="http://www.w3.org/2000/svg"
   xmlns="http://www.w3.org/2000/svg"
   xmlns:sodipodi="http://sodipodi.sourceforge.net/DTD/sodipodi-0.dtd"
   xmlns:inkscape="http://www.inkscape.org/namespaces/inkscape"
   id="licences"
   viewBox="0 0 68.58271 24"
   version="1.1"
   sodipodi:docname="by-nd.svg"
   inkscape:version="0.92.4 (5da689c313, 2019-01-14)"
   width="68.58271"
   height="24">
  <metadata
     id="metadata35">
    <rdf:RDF>
      <cc:Work
         rdf:about="">
        <dc:format>image/svg+xml</dc:format>
        <dc:type
           rdf:resource="http://purl.org/dc/dcmitype/StillImage" />
        <dc:title></dc:title>
      </cc:Work>
    </rdf:RDF>
  </metadata>
  <sodipodi:namedview
     pagecolor="#ffffff"
     bordercolor="#666666"
     borderopacity="1"
     objecttolerance="10"
     gridtolerance="10"
     guidetolerance="10"
     inkscape:pageopacity="0"
     inkscape:pageshadow="2"
     inkscape:window-width="1920"
     inkscape:window-height="1017"
     id="namedview33"
     showgrid="false"
     inkscape:zoom="2.8416667"
     inkscape:cx="-22.443519"
     inkscape:cy="20.811326"
     inkscape:window-x="3832"
     inkscape:window-y="515"
     inkscape:window-maximized="1"
     inkscape:current-layer="licences"
     fit-margin-top="0"
     fit-margin-left="0"
     fit-margin-right="0"
     fit-margin-bottom="0" />
  <defs
     id="defs4">
    <style
       id="style2">.cls-1{fill:#e7d8fe;}.cls-2{fill:#fff;}.cls-3,.cls-4{fill:#6e3ebb;}.cls-4{fill-rule:evenodd;}.cls-5{isolation:isolate;}</style>
  </defs>
  <g
     id="layer1"
     transform="matrix(0.57142736,0,0,0.57142736,0,5.0794555e-5)">
    <g
       id="g78">
      <path
         id="path3817"
         class="cls-1"
         d="m 3.41,0.44 113.35,0.2 c 1.59,0 3,-0.24 3,3.16 l -0.14,37.33 H 0.55 V 3.66 C 0.55,2 0.71,0.44 3.41,0.44 Z"
         inkscape:connector-curvature="0"
         style="fill:#e7d8fe" />
      <g
         id="g5908">
        <path
           id="path5906"
           class="cls-2"
           d="m 34.52,19.54 a 13.64,13.64 0 1 1 -27.27,0 v 0 a 13.64,13.64 0 1 1 27.27,0 z"
           inkscape:connector-curvature="0"
           style="fill:#ffffff" />
        <g
           id="g5706">
          <path
             id="path5708"
             class="cls-3"
             d="m 32,8.43 a 15.13,15.13 0 0 1 4.54,11.11 14.83,14.83 0 0 1 -4.46,11 A 15.38,15.38 0 0 1 20.9,35.2 15,15 0 0 1 9.9,30.58 15.05,15.05 0 0 1 5.29,19.58 15.33,15.33 0 0 1 9.88,8.43 14.9,14.9 0 0 1 20.88,3.9 15.09,15.09 0 0 1 32,8.43 Z m -20,2 a 12.5,12.5 0 0 0 -3.84,9.08 12.3,12.3 0 0 0 3.8,9 12.37,12.37 0 0 0 9,3.79 12.55,12.55 0 0 0 9.04,-3.8 12,12 0 0 0 3.68,-9 A 12.38,12.38 0 0 0 30,10.45 12.34,12.34 0 0 0 20.94,6.71 12.11,12.11 0 0 0 11.92,10.46 Z M 18.64,18 a 1.87,1.87 0 0 0 -1.75,-1.27 c -1.38,0 -2.07,0.92 -2.07,2.78 0,1.86 0.69,2.78 2.07,2.78 A 2,2 0 0 0 18.84,21 l 1.91,1 A 4.42,4.42 0 0 1 16.65,24.43 4.54,4.54 0 0 1 13.27,23.14 4.88,4.88 0 0 1 12,19.54 4.82,4.82 0 0 1 13.31,16 4.45,4.45 0 0 1 16.57,14.69 4.34,4.34 0 0 1 20.71,17 Z m 9,0 a 1.85,1.85 0 0 0 -1.72,-1.27 c -1.4,0 -2.11,0.92 -2.11,2.78 0,1.86 0.71,2.78 2.11,2.78 A 1.94,1.94 0 0 0 27.83,21 l 2,1 A 4.41,4.41 0 0 1 25.74,24.43 4.51,4.51 0 0 1 22.37,23.14 4.85,4.85 0 0 1 21.1,19.58 4.86,4.86 0 0 1 22.34,16 4.41,4.41 0 0 1 25.61,14.69 4.34,4.34 0 0 1 29.74,17 Z"
             inkscape:connector-curvature="0"
             style="fill:#6e3ebb" />
        </g>
      </g>
      <g
         id="g85">
        <circle
           id="circle87"
           class="cls-2"
           cx="63.360001"
           cy="15.18"
           r="10.74"
           style="fill:#ffffff" />
        <g
           id="g89">
          <path
             id="path91"
             class="cls-3"
             d="M 66.47,12.07 A 0.76,0.76 0 0 0 65.72,11.32 H 61 a 0.75,0.75 0 0 0 -0.75,0.75 v 4.74 h 1.32 v 5.62 h 3.59 v -5.62 h 1.33 v -4.74 z"
             inkscape:connector-curvature="0"
             style="fill:#6e3ebb" />
          <circle
             id="circle93"
             class="cls-3"
             cx="63.349998"
             cy="9.0699997"
             r="1.62"
             style="fill:#6e3ebb" />
        </g>
        <path
           id="path95"
           class="cls-4"
           d="m 63.33,3.35 a 11,11 0 0 0 -8.15,3.36 11.31,11.31 0 0 0 -3.43,8.23 11.14,11.14 0 0 0 3.43,8.18 11.13,11.13 0 0 0 8.15,3.42 11.43,11.43 0 0 0 8.3,-3.45 11,11 0 0 0 3.31,-8.15 A 11.47,11.47 0 0 0 63.33,3.35 Z m 0,2.08 a 9.09,9.09 0 0 1 6.71,2.79 9.09,9.09 0 0 1 2.78,6.72 8.84,8.84 0 0 1 -2.73,6.64 9.31,9.31 0 0 1 -6.76,2.84 9.16,9.16 0 0 1 -6.7,-2.81 9.11,9.11 0 0 1 -2.82,-6.67 9.22,9.22 0 0 1 2.85,-6.72 9,9 0 0 1 6.7,-2.79 z"
           inkscape:connector-curvature="0"
           style="fill:#6e3ebb;fill-rule:evenodd" />
      </g>
      <path
         id="path97"
         class="cls-3"
         d="M 117.75,0 H 2.25 A 2.25,2.25 0 0 0 0,2.25 V 41.49 A 0.51,0.51 0 0 0 0.51,42 h 119 a 0.51,0.51 0 0 0 0.51,-0.51 V 2.25 A 2.25,2.25 0 0 0 117.75,0 Z M 2.25,1 h 115.5 A 1.23,1.23 0 0 1 119,2.25 v 27.2 H 36.43 a 17.74,17.74 0 0 1 -31.09,0 H 1 V 2.25 A 1.23,1.23 0 0 1 2.25,1 Z"
         inkscape:connector-curvature="0"
         style="fill:#6e3ebb" />
      <g
         id="g99"
         class="cls-5"
         style="isolation:isolate">
        <path
           id="path101"
           class="cls-2"
           d="m 60,32.75 a 4.57,4.57 0 0 1 0.86,0.08 2.14,2.14 0 0 1 0.67,0.27 1.25,1.25 0 0 1 0.43,0.51 1.8,1.8 0 0 1 0.16,0.78 1.45,1.45 0 0 1 -0.23,0.83 1.58,1.58 0 0 1 -0.68,0.55 1.59,1.59 0 0 1 0.92,0.62 1.81,1.81 0 0 1 0.3,1.06 1.86,1.86 0 0 1 -0.19,0.87 1.67,1.67 0 0 1 -0.53,0.59 2.35,2.35 0 0 1 -0.75,0.35 3.58,3.58 0 0 1 -0.87,0.11 h -3.22 v -6.62 z m -0.19,2.68 a 1.08,1.08 0 0 0 0.64,-0.19 0.68,0.68 0 0 0 0.25,-0.6 0.86,0.86 0 0 0 -0.08,-0.38 0.61,0.61 0 0 0 -0.22,-0.26 1.12,1.12 0 0 0 -0.32,-0.12 2.43,2.43 0 0 0 -0.38,0 h -1.37 v 1.55 z m 0.09,2.81 a 1.75,1.75 0 0 0 0.4,-0.05 1,1 0 0 0 0.35,-0.13 0.78,0.78 0 0 0 0.24,-0.27 1,1 0 0 0 0.08,-0.43 0.83,0.83 0 0 0 -0.28,-0.72 1.23,1.23 0 0 0 -0.77,-0.22 h -1.59 v 1.82 z"
           inkscape:connector-curvature="0"
           style="fill:#ffffff" />
        <path
           id="path103"
           class="cls-2"
           d="m 62.69,32.75 h 1.63 l 1.55,2.61 1.55,-2.61 H 69 l -2.46,4.08 v 2.54 h -1.42 v -2.58 z"
           inkscape:connector-curvature="0"
           style="fill:#ffffff" />
      </g>
      <g
         id="g105"
         class="cls-5"
         style="isolation:isolate">
        <path
           id="path107"
           class="cls-2"
           d="m 85.93,32.75 2.77,4.44 v 0 -4.44 h 1.36 v 6.62 h -1.43 l -2.76,-4.43 v 0 4.43 h -1.39 v -6.62 z"
           inkscape:connector-curvature="0"
           style="fill:#ffffff" />
        <path
           id="path109"
           class="cls-2"
           d="m 94.22,32.75 a 3.54,3.54 0 0 1 1.19,0.2 2.67,2.67 0 0 1 1,0.61 2.93,2.93 0 0 1 0.63,1 4.18,4.18 0 0 1 0.19,1.44 4.43,4.43 0 0 1 -0.23,1.36 2.79,2.79 0 0 1 -0.56,1 2.55,2.55 0 0 1 -0.94,0.7 3.14,3.14 0 0 1 -1.32,0.26 h -2.82 v -6.57 z m -0.1,5.39 a 1.81,1.81 0 0 0 0.61,-0.1 1.38,1.38 0 0 0 0.53,-0.34 1.75,1.75 0 0 0 0.37,-0.61 2.8,2.8 0 0 0 0.14,-0.93 3.59,3.59 0 0 0 -0.1,-0.9 1.69,1.69 0 0 0 -0.32,-0.69 1.39,1.39 0 0 0 -0.59,-0.44 2.34,2.34 0 0 0 -0.9,-0.16 h -1 v 4.17 z"
           inkscape:connector-curvature="0"
           style="fill:#ffffff" />
      </g>
      <g
         id="g6501">
        <path
           id="path6503"
           class="cls-2"
           d="m 102.49,15 a 10.59,10.59 0 0 1 -21.17,0 v 0 a 10.59,10.59 0 0 1 21.17,0 z"
           inkscape:connector-curvature="0"
           style="fill:#ffffff" />
        <g
           id="g6505">
          <path
             id="path6507"
             class="cls-3"
             d="m 91.74,3.39 a 11,11 0 0 0 -8.15,3.36 11.31,11.31 0 0 0 -3.43,8.25 11.15,11.15 0 0 0 3.43,8.18 11.13,11.13 0 0 0 8.15,3.42 11.47,11.47 0 0 0 8.3,-3.45 A 11,11 0 0 0 103.35,15 11.47,11.47 0 0 0 91.74,3.39 Z m 0,2.08 a 9.09,9.09 0 0 1 6.71,2.79 9.09,9.09 0 0 1 2.81,6.74 8.84,8.84 0 0 1 -2.73,6.64 9.31,9.31 0 0 1 -6.76,2.84 9.16,9.16 0 0 1 -6.7,-2.81 A 9.11,9.11 0 0 1 82.25,15 9.22,9.22 0 0 1 85.1,8.26 9,9 0 0 1 91.77,5.47 Z"
             inkscape:connector-curvature="0"
             style="fill:#6e3ebb" />
          <g
             id="g6509">
            <path
               id="path6511"
               class="cls-3"
               d="m 96.14,12.23 h -8.43 v 2 h 8.43 z m 0,3.73 h -8.43 v 2 h 8.43 z"
               inkscape:connector-curvature="0"
               style="fill:#6e3ebb" />
          </g>
        </g>
      </g>
    </g>
  </g>
</svg>
