<?xml version="1.0" encoding="UTF-8" standalone="no"?>
<svg
   xmlns:dc="http://purl.org/dc/elements/1.1/"
   xmlns:cc="http://creativecommons.org/ns#"
   xmlns:rdf="http://www.w3.org/1999/02/22-rdf-syntax-ns#"
   xmlns:svg="http://www.w3.org/2000/svg"
   xmlns="http://www.w3.org/2000/svg"
   xmlns:sodipodi="http://sodipodi.sourceforge.net/DTD/sodipodi-0.dtd"
   xmlns:inkscape="http://www.inkscape.org/namespaces/inkscape"
   id="licences"
   viewBox="0 0 68.582711 24"
   version="1.1"
   sodipodi:docname="by-nc.svg"
   width="68.58271"
   height="24"
   inkscape:version="0.92.4 (5da689c313, 2019-01-14)">
  <metadata
     id="metadata23">
    <rdf:RDF>
      <cc:Work
         rdf:about="">
        <dc:format>image/svg+xml</dc:format>
        <dc:type
           rdf:resource="http://purl.org/dc/dcmitype/StillImage" />
        <dc:title></dc:title>
      </cc:Work>
    </rdf:RDF>
  </metadata>
  <sodipodi:namedview
     pagecolor="#ffffff"
     bordercolor="#666666"
     borderopacity="1"
     objecttolerance="10"
     gridtolerance="10"
     guidetolerance="10"
     inkscape:pageopacity="0"
     inkscape:pageshadow="2"
     inkscape:window-width="1920"
     inkscape:window-height="1017"
     id="namedview21"
     showgrid="false"
     fit-margin-top="0"
     fit-margin-left="0"
     fit-margin-right="0"
     fit-margin-bottom="0"
     inkscape:zoom="2.8416667"
     inkscape:cx="-66.669108"
     inkscape:cy="21"
     inkscape:window-x="3832"
     inkscape:window-y="515"
     inkscape:window-maximized="1"
     inkscape:current-layer="licences" />
  <defs
     id="defs4">
    <style
       id="style2">.cls-1{fill:#e7d8fe;}.cls-2{fill:#fff;}.cls-3,.cls-4{fill:#6e3ebb;}.cls-4{fill-rule:evenodd;}</style>
  </defs>
  <path
     id="path3817"
     class="cls-1"
     d="m 1.9485673,0.25147959 64.7712907,0.1142848 c 0.90857,0 1.714283,-0.131428 1.714283,1.80571041 l -0.08,21.3313832 H 0.31428505 V 2.0914756 c 0,-0.9485696 0.0914284,-1.83999601 1.63428225,-1.83999601 z"
     inkscape:connector-curvature="0"
     style="fill:#e7d8fe;stroke-width:0.57142735" />
  <path
     id="path5906"
     class="cls-2"
     d="m 19.725673,11.165742 a 7.7942692,7.7942692 0 1 1 -15.5828246,0 v 0 a 7.7942692,7.7942692 0 0 1 15.5828246,0 z"
     inkscape:connector-curvature="0"
     style="fill:#ffffff;stroke-width:0.57142735" />
  <path
     id="path5708"
     class="cls-3"
     d="m 18.285675,4.817184 a 8.6514104,8.6514104 0 0 1 2.594281,6.348558 8.4971248,8.4971248 0 0 1 -2.548566,6.2857 8.805696,8.805696 0 0 1 -6.388558,2.657138 8.5714104,8.5714104 0 0 1 -6.2857011,-2.639994 8.5999816,8.5999816 0 0 1 -2.6342802,-6.285702 8.7599816,8.7599816 0 0 1 2.6228516,-6.3657 8.514268,8.514268 0 0 1 6.2857007,-2.588566 8.6228392,8.6228392 0 0 1 6.354272,2.588566 z M 6.8571283,5.960039 a 7.119985,7.119985 0 0 0 -2.194281,5.182845 7.0285566,7.0285566 0 0 0 2.171424,5.142846 7.0456994,7.0456994 0 0 0 5.1428467,2.16571 7.1485563,7.1485563 0 0 0 5.165703,-2.16571 6.8571283,6.8571283 0 0 0 2.102853,-5.142846 A 7.0742707,7.0742707 0 0 0 17.142821,5.971467 7.0514137,7.0514137 0 0 0 11.965689,3.8343284 6.9028426,6.9028426 0 0 0 6.8114142,5.982896 Z m 3.7942777,4.325704 A 1.0628549,1.0628549 0 0 0 9.651408,9.554316 c -0.7885696,0 -1.1828544,0.531428 -1.1828544,1.588568 0,1.057141 0.3942848,1.594282 1.1828544,1.594282 a 1.1428547,1.1428547 0 0 0 1.114283,-0.73714 l 1.091427,0.571427 A 2.5314232,2.5314232 0 0 1 9.5142656,13.954307 2.5942802,2.5942802 0 0 1 7.5828411,13.217166 2.7885655,2.7885655 0 0 1 6.8571283,11.165742 2.7542799,2.7542799 0 0 1 7.6056982,9.142889 2.5428518,2.5428518 0 0 1 9.4685512,8.394318 2.4799947,2.4799947 0 0 1 11.834261,9.714316 Z m 5.142846,0 A 1.0571406,1.0571406 0 0 0 14.811398,9.554316 c -0.799999,0 -1.205712,0.531428 -1.205712,1.588568 0,1.057141 0.405713,1.594282 1.205712,1.594282 a 1.1428547,1.1428547 0 0 0 1.091425,-0.73714 l 1.142855,0.571427 a 2.525709,2.525709 0 0 1 -2.337138,1.382854 2.5771374,2.5771374 0 0 1 -1.92571,-0.737141 2.7714227,2.7714227 0 0 1 -0.725712,-2.034282 2.777137,2.777137 0 0 1 0.708569,-2.039995 2.5199946,2.5199946 0 0 1 1.868567,-0.748571 2.4799947,2.4799947 0 0 1 2.359996,1.319998 z"
     inkscape:connector-curvature="0"
     style="fill:#6e3ebb;stroke-width:0.57142735" />
  <path
     id="path332"
     class="cls-3"
     d="M 67.285572,5.0793245e-5 H 1.2857116 A 1.2857116,1.2857116 0 0 0 0,1.2857628 V 23.708572 A 0.29142795,0.29142795 0 0 0 0.29142795,24 H 68.291284 a 0.29142795,0.29142795 0 0 0 0.291428,-0.291428 V 1.2857628 A 1.2857116,1.2857116 0 0 0 67.285572,5.0793245e-5 Z M 1.2857116,0.57147879 H 67.285572 A 0.70856993,0.70856993 0 0 1 67.999856,1.2857628 V 16.828586 H 20.817098 a 10.137122,10.137122 0 0 1 -17.7656759,0 H 0.57142736 V 1.2857628 A 0.70856993,0.70856993 0 0 1 1.2857116,0.57147879 Z"
     inkscape:connector-curvature="0"
     style="fill:#6e3ebb;stroke-width:0.57142735" />
  <path
     id="path336"
     class="cls-2"
     d="m 34.285642,18.714297 a 2.611423,2.611423 0 0 1 0.491428,0.04571 1.2228546,1.2228546 0 0 1 0.382856,0.154285 0.7142842,0.7142842 0 0 1 0.245713,0.291428 1.0285693,1.0285693 0 0 1 0.09143,0.445713 0.82856968,0.82856968 0 0 1 -0.131429,0.474285 0.94285512,0.94285512 0 0 1 -0.38857,0.314285 0.90856952,0.90856952 0 0 1 0.525713,0.354285 1.0342835,1.0342835 0 0 1 0.171428,0.605713 1.0628549,1.0628549 0 0 1 -0.108571,0.497142 0.95428368,0.95428368 0 0 1 -0.302857,0.337142 1.3428543,1.3428543 0 0 1 -0.42857,0.199999 2.0457099,2.0457099 0 0 1 -0.497142,0.06286 h -1.839996 v -3.782849 z m -0.108572,1.531425 a 0.61714155,0.61714155 0 0 0 0.365714,-0.108571 0.38857061,0.38857061 0 0 0 0.142857,-0.342857 0.49142753,0.49142753 0 0 0 -0.04571,-0.217142 0.34857069,0.34857069 0 0 0 -0.125714,-0.148571 0.50285608,0.50285608 0 0 0 -0.182857,-0.06857 1.3885685,1.3885685 0 0 0 -0.217142,0 h -0.782855 v 0.885713 z m 0.05143,1.605711 a 0.99999792,0.99999792 0 0 0 0.228571,-0.02857 0.57142736,0.57142736 0 0 0 0.2,-0.07429 0.44571334,0.44571334 0 0 0 0.137142,-0.154285 0.57142736,0.57142736 0 0 0 0.04571,-0.245714 0.47428471,0.47428471 0 0 0 -0.16,-0.411428 0.70285566,0.70285566 0 0 0 -0.439999,-0.125714 h -0.908569 v 1.039998 z"
     inkscape:connector-curvature="0"
     style="fill:#ffffff;stroke-width:0.57142735" />
  <path
     id="path338"
     class="cls-2"
     d="m 35.822782,18.714297 h 0.931426 l 0.885712,1.491425 0.885713,-1.491425 h 0.902855 l -1.405711,2.331424 v 1.451425 H 37.21135 v -1.474283 z"
     inkscape:connector-curvature="0"
     style="fill:#ffffff;stroke-width:0.57142735" />
  <path
     id="path342"
     class="cls-2"
     d="m 49.388467,18.714297 1.582854,2.537137 v 0 -2.537137 h 0.777141 v 3.782849 h -0.817141 l -1.577139,-2.531423 v 0 2.531423 h -0.782856 v -3.782849 z"
     inkscape:connector-curvature="0"
     style="fill:#ffffff;stroke-width:0.57142735" />
  <path
     id="path344"
     class="cls-2"
     d="m 54.919884,19.720009 a 0.7999983,0.7999983 0 0 0 -0.182857,-0.211428 0.97142648,0.97142648 0 0 0 -0.251428,-0.137143 0.87999816,0.87999816 0 0 0 -0.297142,-0.05143 0.9028552,0.9028552 0 0 0 -0.794284,0.4 1.2457117,1.2457117 0 0 0 -0.177143,0.417142 1.9028531,1.9028531 0 0 0 -0.05714,0.479999 1.7714248,1.7714248 0 0 0 0.05714,0.462856 1.1828546,1.1828546 0 0 0 0.177143,0.405714 0.92571232,0.92571232 0 0 0 0.319999,0.291427 0.98856936,0.98856936 0 0 0 0.474285,0.108571 0.76571266,0.76571266 0 0 0 0.571427,-0.234285 1.0571406,1.0571406 0 0 0 0.262857,-0.617141 h 0.805713 a 1.9142817,1.9142817 0 0 1 -0.16,0.645713 1.525711,1.525711 0 0 1 -0.354285,0.485713 1.399997,1.399997 0 0 1 -0.508571,0.308571 2.0057101,2.0057101 0 0 1 -1.422854,-0.04571 1.5999966,1.5999966 0 0 1 -0.571427,-0.417142 1.8457104,1.8457104 0 0 1 -0.371428,-0.622856 2.3714235,2.3714235 0 0 1 -0.125714,-0.771426 2.5314232,2.5314232 0 0 1 0.125714,-0.788571 1.8685674,1.8685674 0 0 1 0.371428,-0.628569 1.628568,1.628568 0 0 1 0.571427,-0.428571 1.9142817,1.9142817 0 0 1 0.782856,-0.154285 2.0228529,2.0228529 0 0 1 0.571427,0.09143 1.7142821,1.7142821 0 0 1 0.497142,0.262856 1.3828542,1.3828542 0 0 1 0.359999,0.428571 1.5885681,1.5885681 0 0 1 0.182857,0.571427 h -0.759999 a 0.69142711,0.69142711 0 0 0 -0.09714,-0.251427 z"
     inkscape:connector-curvature="0"
     style="fill:#ffffff;stroke-width:0.57142735" />
  <circle
     id="circle351"
     class="cls-2"
     cx="36.205635"
     cy="8.697176"
     r="6.1371298"
     style="fill:#ffffff;stroke-width:0.57142735" />
  <path
     id="path355"
     class="cls-3"
     d="m 37.982777,6.920036 a 0.43428479,0.43428479 0 0 0 -0.428571,-0.42857 h -2.697137 a 0.42857052,0.42857052 0 0 0 -0.428571,0.42857 v 2.708566 h 0.754284 v 3.211422 h 2.051425 V 9.628602 h 0.759999 V 6.920036 Z"
     inkscape:connector-curvature="0"
     style="fill:#6e3ebb;stroke-width:0.57142735" />
  <circle
     id="circle357"
     class="cls-3"
     cx="36.199924"
     cy="5.2057543"
     r="0.92571229"
     style="fill:#6e3ebb;stroke-width:0.57142735" />
  <path
     id="path359"
     class="cls-4"
     d="m 36.188495,1.93719 a 6.285701,6.285701 0 0 0 -4.657133,1.919996 6.4628434,6.4628434 0 0 0 -1.959996,4.714276 6.3714151,6.3714151 0 0 0 1.959996,4.674275 6.3599866,6.3599866 0 0 0 4.657133,1.954281 6.5314147,6.5314147 0 0 0 4.742847,-1.971424 6.285701,6.285701 0 0 0 1.891424,-4.657132 6.5542718,6.5542718 0 0 0 -6.634271,-6.634272 z m 0,1.1885688 a 5.1942747,5.1942747 0 0 1 3.834278,1.5942822 5.1942747,5.1942747 0 0 1 1.60571,3.851421 5.0514179,5.0514179 0 0 1 -1.559997,3.794277 5.3199887,5.3199887 0 0 1 -3.862848,1.622854 5.2342746,5.2342746 0 0 1 -3.828564,-1.605711 5.2057033,5.2057033 0 0 1 -1.611425,-3.81142 5.2685602,5.2685602 0 0 1 1.628568,-3.839992 5.1428462,5.1428462 0 0 1 3.811421,-1.6057112 z"
     inkscape:connector-curvature="0"
     style="fill:#6e3ebb;fill-rule:evenodd;stroke-width:0.57142735" />
  <path
     id="path6372"
     class="cls-2"
     d="m 58.125591,8.571462 a 5.7142736,5.7142736 0 0 1 -11.382833,0 v 0 a 5.7142736,5.7142736 0 1 1 11.382833,0 z"
     inkscape:connector-curvature="0"
     style="fill:#ffffff;stroke-width:0.57142735" />
  <path
     id="path45"
     class="cls-3"
     d="m 57.142736,3.857186 a 6.411415,6.411415 0 0 0 -4.714275,-1.9257104 6.285701,6.285701 0 0 0 -4.657134,1.9257104 6.4571292,6.4571292 0 0 0 -1.965709,4.714276 6.3542722,6.3542722 0 0 0 1.959995,4.66856 6.3428437,6.3428437 0 0 0 4.657133,1.959996 6.5314147,6.5314147 0 0 0 4.742848,-1.971424 6.285701,6.285701 0 0 0 1.891424,-4.657132 6.3942722,6.3942722 0 0 0 -1.914282,-4.714276 z m -0.834284,8.497124 a 5.3428458,5.3428458 0 0 1 -3.868563,1.622854 5.2342746,5.2342746 0 0 1 -3.828563,-1.605711 5.3542744,5.3542744 0 0 1 -1.319997,-5.571416 l 1.754281,0.777141 h -0.125713 v 0.782855 h 0.622855 c 0,0.114285 0,0.222857 0,0.337142 v 0.188571 h -0.622855 v 0.782856 h 0.725713 a 3.1257077,3.1257077 0 0 0 0.639998,1.445711 3.3371358,3.3371358 0 0 0 2.708566,1.262854 3.7314206,3.7314206 0 0 0 1.714282,-0.422856 L 54.439885,10.725742 A 3.1199934,3.1199934 0 0 1 53.17703,11.011456 1.8685674,1.8685674 0 0 1 51.742748,10.440029 1.7599962,1.7599962 0 0 1 51.377034,9.662887 h 2.411424 l 3.428564,1.519997 a 4.9942751,4.9942751 0 0 1 -0.90857,1.171426 z M 51.99989,8.885746 Z M 54.062742,8.360033 H 54.1656 V 7.577178 H 52.27989 L 51.514177,7.234321 a 1.8971389,1.8971389 0 0 1 0.234285,-0.382856 1.7142821,1.7142821 0 0 1 1.394283,-0.599998 3.3257073,3.3257073 0 0 1 1.234283,0.26857 l 0.30857,-1.262854 A 4.2114197,4.2114197 0 0 0 53.022745,4.925755 3.3485643,3.3485643 0 0 0 50.457036,6.06861 3.5314211,3.5314211 0 0 0 50.085608,6.600037 l -2.20571,-0.971426 a 5.8285591,5.8285591 0 0 1 0.748571,-0.914284 5.1428462,5.1428462 0 0 1 3.81142,-1.5885682 5.2114175,5.2114175 0 0 1 3.834277,1.5885682 5.2171318,5.2171318 0 0 1 1.588568,3.857135 5.931416,5.931416 0 0 1 -0.165713,1.411425 z"
     inkscape:connector-curvature="0"
     style="fill:#6e3ebb;stroke-width:0.57142735" />
</svg>
