<?xml version="1.0" encoding="UTF-8" standalone="no"?>
<svg
   xmlns:dc="http://purl.org/dc/elements/1.1/"
   xmlns:cc="http://creativecommons.org/ns#"
   xmlns:rdf="http://www.w3.org/1999/02/22-rdf-syntax-ns#"
   xmlns:svg="http://www.w3.org/2000/svg"
   xmlns="http://www.w3.org/2000/svg"
   xmlns:sodipodi="http://sodipodi.sourceforge.net/DTD/sodipodi-0.dtd"
   xmlns:inkscape="http://www.inkscape.org/namespaces/inkscape"
   id="licences"
   viewBox="0 0 68.582711 24"
   version="1.1"
   sodipodi:docname="by-nc-nd.svg"
   width="68.58271"
   height="24"
   inkscape:version="0.92.4 (5da689c313, 2019-01-14)">
  <metadata
     id="metadata29">
    <rdf:RDF>
      <cc:Work
         rdf:about="">
        <dc:format>image/svg+xml</dc:format>
        <dc:type
           rdf:resource="http://purl.org/dc/dcmitype/StillImage" />
        <dc:title></dc:title>
      </cc:Work>
    </rdf:RDF>
  </metadata>
  <sodipodi:namedview
     pagecolor="#ffffff"
     bordercolor="#666666"
     borderopacity="1"
     objecttolerance="10"
     gridtolerance="10"
     guidetolerance="10"
     inkscape:pageopacity="0"
     inkscape:pageshadow="2"
     inkscape:window-width="1920"
     inkscape:window-height="1017"
     id="namedview27"
     showgrid="false"
     fit-margin-top="0"
     fit-margin-left="0"
     fit-margin-right="0"
     fit-margin-bottom="0"
     inkscape:zoom="2.8416667"
     inkscape:cx="-97.219814"
     inkscape:cy="21"
     inkscape:window-x="3832"
     inkscape:window-y="515"
     inkscape:window-maximized="1"
     inkscape:current-layer="licences" />
  <defs
     id="defs4">
    <style
       id="style2">.cls-1{fill:#e7d8fe;}.cls-2{fill:#fff;}.cls-3,.cls-4{fill:#6e3ebb;}.cls-4{fill-rule:evenodd;}</style>
  </defs>
  <path
     id="path3817"
     class="cls-1"
     d="m 1.9485673,0.25719319 64.7712907,0.1142856 c 0.90857,0 1.714283,-0.1371424 1.714283,1.80571041 l -0.08,21.3313828 H 0.31428505 V 2.09719 c 0,-0.954284 0.0914284,-1.83999681 1.63428225,-1.83999681 z"
     inkscape:connector-curvature="0"
     style="fill:#e7d8fe;stroke-width:0.57142735" />
  <path
     id="path5906"
     class="cls-2"
     d="m 19.725673,11.165742 a 7.7942692,7.7942692 0 1 1 -15.5828246,0 v 0 a 7.7942692,7.7942692 0 0 1 15.5828246,0 z"
     inkscape:connector-curvature="0"
     style="fill:#ffffff;stroke-width:0.57142735" />
  <path
     id="path6396"
     class="cls-2"
     d="m 65.525576,8.571461 a 6.0514157,6.0514157 0 0 1 -12.097117,0 v 0 a 6.0514157,6.0514157 0 0 1 12.097117,0 z"
     inkscape:connector-curvature="0"
     style="fill:#ffffff;stroke-width:0.57142735" />
  <circle
     id="circle400"
     class="cls-2"
     cx="29.577078"
     cy="8.697176"
     r="6.1371298"
     style="fill:#ffffff;stroke-width:0.57142735" />
  <path
     id="path6372"
     class="cls-2"
     d="m 50.171322,8.571461 a 5.7142736,5.7142736 0 1 1 -11.382832,0 v 0 a 5.7142736,5.7142736 0 1 1 11.382832,0 z"
     inkscape:connector-curvature="0"
     style="fill:#ffffff;stroke-width:0.57142735" />
  <path
     id="path364"
     class="cls-3"
     d="M 67.285572,5.0793245e-5 H 1.2857116 A 1.2857116,1.2857116 0 0 0 0,1.2857628 V 23.708572 A 0.29142795,0.29142795 0 0 0 0.29142795,24 H 68.291284 a 0.29142795,0.29142795 0 0 0 0.291428,-0.291428 V 1.2857628 A 1.2857116,1.2857116 0 0 0 67.285572,5.0793245e-5 Z M 1.2857116,0.57147879 H 67.285572 A 0.70285566,0.70285566 0 0 1 67.999856,1.2857628 V 16.834301 H 20.817098 a 10.137122,10.137122 0 0 1 -17.7656759,0 H 0.57142736 V 1.2857628 A 0.70285566,0.70285566 0 0 1 1.2857116,0.57147879 Z"
     inkscape:connector-curvature="0"
     style="fill:#6e3ebb;stroke-width:0.57142735" />
  <path
     id="path5708"
     class="cls-3"
     d="m 18.285675,4.822898 a 8.6171251,8.6171251 0 0 1 2.594281,6.342844 8.4856959,8.4856959 0 0 1 -2.548566,6.2857 8.8114094,8.8114094 0 0 1 -6.388558,2.662852 8.5714102,8.5714102 0 0 1 -6.2857011,-2.639994 8.6056959,8.6056959 0 0 1 -2.6342802,-6.285702 8.7599817,8.7599817 0 0 1 2.6228517,-6.3657 8.5142679,8.5142679 0 0 1 6.2857006,-2.59428 8.6285526,8.6285526 0 0 1 6.354272,2.59428 z M 6.8571283,5.965753 a 7.142842,7.142842 0 0 0 -2.194281,5.18856 7.0056994,7.0056994 0 0 0 2.171424,5.142846 7.0514137,7.0514137 0 0 0 5.1428467,2.171424 7.1714134,7.1714134 0 0 0 5.165702,-2.177138 6.8571283,6.8571283 0 0 0 2.102853,-5.142847 A 7.0856992,7.0856992 0 0 0 17.14282,5.971467 7.0456994,7.0456994 0 0 0 11.965689,3.8400428 6.9199854,6.9199854 0 0 0 6.8114142,5.982896 Z m 3.7942787,4.31999 A 1.0685692,1.0685692 0 0 0 9.6514078,9.56003 c -0.7885698,0 -1.1828539,0.525714 -1.1828539,1.588568 0,1.062856 0.3942841,1.588569 1.1828539,1.588569 a 1.1428547,1.1428547 0 0 0 1.1142832,-0.737141 l 1.091427,0.571427 A 2.525709,2.525709 0 0 1 9.5142658,13.960022 2.5771375,2.5771375 0 0 1 7.5885554,13.22288 2.777137,2.777137 0 0 1 6.8571283,11.165742 2.7485656,2.7485656 0 0 1 7.6056982,9.142889 2.5428517,2.5428517 0 0 1 9.468551,8.394318 2.485709,2.485709 0 0 1 11.83426,9.714316 Z m 5.142845,0 A 1.0571407,1.0571407 0 0 0 14.811397,9.56003 c -0.799998,0 -1.205712,0.525714 -1.205712,1.588568 0,1.062856 0.405714,1.588569 1.205712,1.588569 a 1.1028548,1.1028548 0 0 0 1.091426,-0.737141 l 1.142856,0.571427 a 2.5199947,2.5199947 0 0 1 -2.337139,1.388569 2.5771375,2.5771375 0 0 1 -1.925709,-0.737142 2.799994,2.799994 0 0 1 -0.725713,-2.039996 2.7714227,2.7714227 0 0 1 0.708569,-2.039995 2.5199947,2.5199947 0 0 1 1.868567,-0.748571 2.4799947,2.4799947 0 0 1 2.359995,1.319998 z"
     inkscape:connector-curvature="0"
     style="fill:#6e3ebb;stroke-width:0.57142735" />
  <path
     id="path6400"
     class="cls-3"
     d="m 59.382731,1.93719 a 6.3314152,6.3314152 0 0 0 -4.662847,1.919996 6.4799863,6.4799863 0 0 0 -1.954281,4.714275 6.3885579,6.3885579 0 0 0 1.954281,4.674276 6.3657008,6.3657008 0 0 0 4.662847,1.954281 6.5428432,6.5428432 0 0 0 4.742847,-1.971424 6.2857009,6.2857009 0 0 0 1.891425,-4.657133 6.5657004,6.5657004 0 0 0 -6.634272,-6.634271 z m 0,1.1885688 a 5.1828462,5.1828462 0 0 1 3.828563,1.5942822 5.1771319,5.1771319 0 0 1 1.611426,3.85142 5.0514179,5.0514179 0 0 1 -1.559997,3.794278 5.3314172,5.3314172 0 0 1 -3.834277,1.611425 5.2457032,5.2457032 0 0 1 -3.834278,-1.605711 5.1999889,5.1999889 0 0 1 -1.634282,-3.799992 5.262846,5.262846 0 0 1 1.622853,-3.839991 5.1428462,5.1428462 0 0 1 3.845707,-1.6057112 z"
     inkscape:connector-curvature="0"
     style="fill:#6e3ebb;stroke-width:0.57142735" />
  <g
     id="g6402"
     transform="matrix(0.57142736,0,0,0.57142736,0,5.0793245e-5)">
    <path
       id="path6404"
       class="cls-3"
       d="m 108.31,12.23 h -8.43 v 2 h 8.43 z m 0,3.73 h -8.43 v 2 h 8.43 z"
       inkscape:connector-curvature="0"
       style="fill:#6e3ebb" />
  </g>
  <path
     id="path404"
     class="cls-3"
     d="m 31.35422,6.920036 a 0.42857052,0.42857052 0 0 0 -0.428571,-0.42857 h -2.708566 a 0.43428479,0.43428479 0 0 0 -0.428571,0.42857 v 2.708565 h 0.782856 v 3.211423 h 2.057139 V 9.628601 h 0.754284 V 6.920036 Z"
     inkscape:connector-curvature="0"
     style="fill:#6e3ebb;stroke-width:0.57142735" />
  <circle
     id="circle406"
     class="cls-3"
     cx="29.571365"
     cy="5.2057543"
     r="0.92571229"
     style="fill:#6e3ebb;stroke-width:0.57142735" />
  <path
     id="path408"
     class="cls-4"
     d="m 29.565652,1.93719 a 6.3314152,6.3314152 0 0 0 -4.662847,1.919996 6.4799863,6.4799863 0 0 0 -1.954282,4.714275 6.3885579,6.3885579 0 0 0 1.954282,4.674276 6.3657008,6.3657008 0 0 0 4.662847,1.954281 6.5428432,6.5428432 0 0 0 4.71999,-1.982852 6.2857009,6.2857009 0 0 0 1.914281,-4.645705 6.5657004,6.5657004 0 0 0 -6.634271,-6.634271 z m 0,1.1885688 a 5.1828462,5.1828462 0 0 1 3.828564,1.5942822 5.1771319,5.1771319 0 0 1 1.611424,3.85142 5.0514179,5.0514179 0 0 1 -1.559997,3.794278 5.3314172,5.3314172 0 0 1 -3.862848,1.622854 5.2457032,5.2457032 0 0 1 -3.834279,-1.605712 5.1999889,5.1999889 0 0 1 -1.60571,-3.81142 5.262846,5.262846 0 0 1 1.622854,-3.839991 5.1428462,5.1428462 0 0 1 3.817135,-1.6057112 z"
     inkscape:connector-curvature="0"
     style="fill:#6e3ebb;fill-rule:evenodd;stroke-width:0.57142735" />
  <path
     id="path45"
     class="cls-3"
     d="m 49.182753,3.857186 a 6.3885579,6.3885579 0 0 0 -4.708562,-1.9257104 6.2857009,6.2857009 0 0 0 -4.662847,1.9257104 6.4799863,6.4799863 0 0 0 -1.954281,4.714275 6.3714152,6.3714152 0 0 0 1.954281,4.668562 6.348558,6.348558 0 0 0 4.662847,1.959995 6.5428432,6.5428432 0 0 0 4.742847,-1.971424 6.2857009,6.2857009 0 0 0 1.891425,-4.657133 6.3771294,6.3771294 0 0 0 -1.92571,-4.714275 z m -0.82857,8.497124 a 5.3314172,5.3314172 0 0 1 -3.862848,1.622854 5.2457032,5.2457032 0 0 1 -3.834279,-1.605711 5.325703,5.325703 0 0 1 -1.314283,-5.571416 l 1.754283,0.777141 h -0.125714 v 0.782854 h 0.617141 c 0,0.114287 0,0.222858 0,0.337143 v 0.188571 h -0.617141 v 0.782856 h 0.742855 a 3.0742792,3.0742792 0 0 0 0.622856,1.445711 3.319993,3.319993 0 0 0 2.702852,1.262855 3.7142779,3.7142779 0 0 0 1.714281,-0.422857 l -0.262855,-1.228568 a 3.1257077,3.1257077 0 0 1 -1.26857,0.285713 1.8514247,1.8514247 0 0 1 -1.428568,-0.571427 1.714282,1.714282 0 0 1 -0.365714,-0.771427 h 2.411425 l 3.428563,1.519996 A 5.1771319,5.1771319 0 0 1 48.354183,12.35431 Z M 44.04562,8.885746 Z m 2.062854,-0.525714 h 0.09714 V 7.577178 H 44.325619 L 43.56562,7.234321 A 1.5942823,1.5942823 0 0 1 43.799906,6.851465 1.714282,1.714282 0 0 1 45.14276,6.285752 3.3028502,3.3028502 0 0 1 46.371329,6.548608 L 46.6799,5.285754 A 4.1885625,4.1885625 0 0 0 45.017045,4.954327 3.3371357,3.3371357 0 0 0 42.45705,6.097181 3.1599932,3.1599932 0 0 0 42.085624,6.628608 L 39.92563,5.628611 A 6.1714155,6.1714155 0 0 1 40.6742,4.714327 5.1428462,5.1428462 0 0 1 44.491335,3.1257588 5.1999889,5.1999889 0 0 1 48.319898,4.714327 5.1999889,5.1999889 0 0 1 49.91418,8.571461 5.617131,5.617131 0 0 1 49.742752,9.982887 Z"
     inkscape:connector-curvature="0"
     style="fill:#6e3ebb;stroke-width:0.57142735" />
  <path
     id="path372"
     class="cls-2"
     d="m 27.479942,18.714297 a 2.6285659,2.6285659 0 0 1 0.497142,0.04571 1.2228545,1.2228545 0 0 1 0.382856,0.154286 0.76571266,0.76571266 0 0 1 0.245713,0.291428 1.0342835,1.0342835 0 0 1 0.08572,0.445712 0.78856976,0.78856976 0 0 1 -0.131429,0.474285 0.88571243,0.88571243 0 0 1 -0.382855,0.314285 0.90856952,0.90856952 0 0 1 0.525712,0.354286 1.0342835,1.0342835 0 0 1 0.171429,0.605713 0.99999795,0.99999795 0 0 1 -0.114286,0.497141 0.94285515,0.94285515 0 0 1 -0.297142,0.337143 1.3428543,1.3428543 0 0 1 -0.428571,0.199998 2.0799956,2.0799956 0 0 1 -0.497141,0.06286 h -1.822854 v -3.78285 z m -0.102857,1.531425 a 0.61714155,0.61714155 0 0 0 0.365713,-0.108571 0.3885706,0.3885706 0 0 0 0.142857,-0.342857 0.49142752,0.49142752 0 0 0 -0.04571,-0.217142 0.3257136,0.3257136 0 0 0 -0.131428,-0.131428 0.46857044,0.46857044 0 0 0 -0.182857,-0.06857 1.2685687,1.2685687 0 0 0 -0.211428,0 h -0.782855 v 0.885712 z m 0.05143,1.605711 a 1.0514263,1.0514263 0 0 0 0.234286,-0.02857 0.57142736,0.57142736 0 0 0 0.199999,-0.07429 0.4971418,0.4971418 0 0 0 0.131429,-0.154285 0.50857035,0.50857035 0 0 0 0.05143,-0.245715 0.47999899,0.47999899 0 0 0 -0.165715,-0.411426 0.67428429,0.67428429 0 0 0 -0.434284,-0.125715 h -0.914284 v 1.039998 z"
     inkscape:connector-curvature="0"
     style="fill:#ffffff;stroke-width:0.57142735" />
  <path
     id="path374"
     class="cls-2"
     d="m 29.022796,18.714297 h 0.931426 l 0.902855,1.491426 0.879999,-1.491426 h 0.931427 l -1.405712,2.331424 v 1.451425 h -0.851427 v -1.474283 z"
     inkscape:connector-curvature="0"
     style="fill:#ffffff;stroke-width:0.57142735" />
  <path
     id="path378"
     class="cls-2"
     d="m 41.439912,18.714297 1.57714,2.537138 v 0 -2.537138 h 0.782856 v 3.782849 h -0.822856 l -1.57714,-2.531422 v 0 2.531422 h -0.78857 v -3.782849 z"
     inkscape:connector-curvature="0"
     style="fill:#ffffff;stroke-width:0.57142735" />
  <path
     id="path380"
     class="cls-2"
     d="m 46.965615,19.720009 a 0.7999983,0.7999983 0 0 0 -0.182857,-0.211428 0.97142647,0.97142647 0 0 0 -0.251427,-0.137143 0.85714102,0.85714102 0 0 0 -0.297143,-0.05143 0.95428369,0.95428369 0 0 0 -0.474285,0.10857 0.92571229,0.92571229 0 0 0 -0.319999,0.291429 1.3714257,1.3714257 0 0 0 -0.177142,0.417142 2.2057096,2.2057096 0 0 0 -0.05715,0.48 2.0514242,2.0514242 0 0 0 0.05715,0.462855 1.3028544,1.3028544 0 0 0 0.177142,0.405714 0.92571229,0.92571229 0 0 0 0.319999,0.291427 1.0171407,1.0171407 0 0 0 0.474285,0.108571 0.77714122,0.77714122 0 0 0 0.571427,-0.234285 1.0914262,1.0914262 0 0 0 0.262857,-0.617141 h 0.805712 a 2.0628528,2.0628528 0 0 1 -0.165714,0.645713 1.5085682,1.5085682 0 0 1 -0.34857,0.485713 1.4457112,1.4457112 0 0 1 -0.50857,0.308571 1.9371387,1.9371387 0 0 1 -0.645714,0.108571 1.8857103,1.8857103 0 0 1 -0.777141,-0.154286 1.6228537,1.6228537 0 0 1 -0.571427,-0.417141 1.8285675,1.8285675 0 0 1 -0.365713,-0.622856 2.2285667,2.2285667 0 0 1 -0.125715,-0.771426 2.3771378,2.3771378 0 0 1 0.125715,-0.788571 1.857139,1.857139 0 0 1 0.365713,-0.62857 1.651425,1.651425 0 0 1 0.571427,-0.42857 1.8857103,1.8857103 0 0 1 0.777141,-0.154286 2.0228529,2.0228529 0 0 1 0.571428,0.09143 1.714282,1.714282 0 0 1 0.497142,0.262857 1.399997,1.399997 0 0 1 0.365714,0.42857 1.5828537,1.5828537 0 0 1 0.177142,0.571428 h -0.754284 a 0.61142728,0.61142728 0 0 0 -0.09714,-0.251428 z"
     inkscape:connector-curvature="0"
     style="fill:#ffffff;stroke-width:0.57142735" />
  <path
     id="path384"
     class="cls-2"
     d="m 56.205595,18.714297 1.57714,2.537138 v 0 -2.537138 h 0.777141 v 3.782849 h -0.82857 l -1.577139,-2.531422 v 0 2.531422 h -0.777141 v -3.782849 z"
     inkscape:connector-curvature="0"
     style="fill:#ffffff;stroke-width:0.57142735" />
  <path
     id="path386"
     class="cls-2"
     d="m 60.937013,18.714297 a 1.9999957,1.9999957 0 0 1 0.68,0.114285 1.525711,1.525711 0 0 1 0.571427,0.348571 1.6742822,1.6742822 0 0 1 0.359999,0.571428 2.3885664,2.3885664 0 0 1 0.131428,0.822855 2.5314232,2.5314232 0 0 1 -0.108571,0.765713 1.6399965,1.6399965 0 0 1 -0.32,0.571427 1.4571397,1.4571397 0 0 1 -0.537141,0.399999 1.7942819,1.7942819 0 0 1 -0.754284,0.148571 h -1.634282 v -3.742849 z m -0.05714,3.079994 a 1.0342835,1.0342835 0 0 0 0.348571,-0.05715 0.74856985,0.74856985 0 0 0 0.302856,-0.194285 0.99999795,0.99999795 0 0 0 0.211428,-0.34857 1.6228537,1.6228537 0 0 0 0.08,-0.531429 2.0514242,2.0514242 0 0 0 -0.05715,-0.514285 0.96571224,0.96571224 0 0 0 -0.182856,-0.394284 0.79428403,0.79428403 0 0 0 -0.337143,-0.251428 1.2342831,1.2342831 0 0 0 -0.514285,-0.09143 h -0.571427 v 2.382852 z"
     inkscape:connector-curvature="0"
     style="fill:#ffffff;stroke-width:0.57142735" />
</svg>
