<?xml version="1.0" encoding="UTF-8" standalone="no"?>
<svg
   xmlns:dc="http://purl.org/dc/elements/1.1/"
   xmlns:cc="http://creativecommons.org/ns#"
   xmlns:rdf="http://www.w3.org/1999/02/22-rdf-syntax-ns#"
   xmlns:svg="http://www.w3.org/2000/svg"
   xmlns="http://www.w3.org/2000/svg"
   xmlns:sodipodi="http://sodipodi.sourceforge.net/DTD/sodipodi-0.dtd"
   xmlns:inkscape="http://www.inkscape.org/namespaces/inkscape"
   id="licences"
   viewBox="0 0 68.58271 24"
   version="1.1"
   sodipodi:docname="by-sa.svg"
   width="68.58271"
   height="24"
   inkscape:version="0.92.4 (5da689c313, 2019-01-14)">
  <metadata
     id="metadata34">
    <rdf:RDF>
      <cc:Work
         rdf:about="">
        <dc:format>image/svg+xml</dc:format>
        <dc:type
           rdf:resource="http://purl.org/dc/dcmitype/StillImage" />
        <dc:title></dc:title>
      </cc:Work>
    </rdf:RDF>
  </metadata>
  <sodipodi:namedview
     pagecolor="#ffffff"
     bordercolor="#666666"
     borderopacity="1"
     objecttolerance="10"
     gridtolerance="10"
     guidetolerance="10"
     inkscape:pageopacity="0"
     inkscape:pageshadow="2"
     inkscape:window-width="1920"
     inkscape:window-height="1017"
     id="namedview32"
     showgrid="false"
     fit-margin-top="0"
     fit-margin-left="0"
     fit-margin-right="0"
     fit-margin-bottom="0"
     inkscape:zoom="2.0093618"
     inkscape:cx="-164.87996"
     inkscape:cy="3.8982018"
     inkscape:window-x="3832"
     inkscape:window-y="515"
     inkscape:window-maximized="1"
     inkscape:current-layer="licences" />
  <defs
     id="defs4">
    <style
       id="style2">.cls-1{fill:#e7d8fe;}.cls-2{fill:#fff;}.cls-3,.cls-5{fill:#6e3ebb;}.cls-4{isolation:isolate;}.cls-5{fill-rule:evenodd;}</style>
  </defs>
  <g
     id="layer1"
     transform="matrix(0.57142736,0,0,0.57142736,0,5.0794555e-5)">
    <g
       id="g287">
      <path
         id="path3817"
         class="cls-1"
         d="m 3.41,0.48 113.35,0.2 c 1.59,0 3,-0.24 3,3.16 l -0.14,37.33 H 0.55 V 3.7 C 0.55,2 0.71,0.48 3.41,0.48 Z"
         inkscape:connector-curvature="0"
         style="fill:#e7d8fe" />
      <g
         id="g5908">
        <path
           id="path5906"
           class="cls-2"
           d="m 34.52,19.58 a 13.64,13.64 0 1 1 -27.27,0 v 0 a 13.64,13.64 0 1 1 27.27,0 z"
           inkscape:connector-curvature="0"
           style="fill:#ffffff" />
        <g
           id="g5706">
          <path
             id="path5708"
             class="cls-3"
             d="m 32,8.47 a 15.13,15.13 0 0 1 4.54,11.11 14.83,14.83 0 0 1 -4.46,11 A 15.38,15.38 0 0 1 20.9,35.24 15,15 0 0 1 9.9,30.62 15.05,15.05 0 0 1 5.29,19.62 15.33,15.33 0 0 1 9.88,8.47 14.9,14.9 0 0 1 20.88,3.93 15.1,15.1 0 0 1 32,8.47 Z m -20,2 a 12.5,12.5 0 0 0 -3.84,9.08 12.26,12.26 0 0 0 3.8,9 12.34,12.34 0 0 0 9,3.8 12.55,12.55 0 0 0 9.04,-3.81 12,12 0 0 0 3.68,-9 A 12.41,12.41 0 0 0 30,10.48 12.33,12.33 0 0 0 20.94,6.75 12.11,12.11 0 0 0 11.92,10.5 Z m 6.72,7.55 a 1.87,1.87 0 0 0 -1.75,-1.27 c -1.38,0 -2.07,0.92 -2.07,2.78 0,1.86 0.69,2.78 2.07,2.78 A 2,2 0 0 0 18.84,21 l 1.91,1 A 4.42,4.42 0 0 1 16.65,24.43 4.54,4.54 0 0 1 13.27,23.14 4.88,4.88 0 0 1 12,19.58 4.82,4.82 0 0 1 13.31,16 4.45,4.45 0 0 1 16.57,14.69 4.35,4.35 0 0 1 20.71,17 Z m 9,0 A 1.85,1.85 0 0 0 26,16.75 c -1.4,0 -2.11,0.92 -2.11,2.78 0,1.86 0.71,2.78 2.11,2.78 A 1.94,1.94 0 0 0 27.83,21 l 2,1 A 4.41,4.41 0 0 1 25.74,24.43 4.51,4.51 0 0 1 22.37,23.14 4.85,4.85 0 0 1 21.1,19.58 4.86,4.86 0 0 1 22.34,16 4.41,4.41 0 0 1 25.61,14.69 4.35,4.35 0 0 1 29.74,17 Z"
             inkscape:connector-curvature="0"
             style="fill:#6e3ebb" />
        </g>
      </g>
      <path
         id="path294"
         class="cls-3"
         d="M 117.75,0 H 2.25 A 2.25,2.25 0 0 0 0,2.25 V 41.49 A 0.51,0.51 0 0 0 0.51,42 h 119 a 0.51,0.51 0 0 0 0.51,-0.51 V 2.25 A 2.25,2.25 0 0 0 117.75,0 Z M 2.25,1 h 115.5 A 1.23,1.23 0 0 1 119,2.25 V 29.49 H 36.43 a 17.74,17.74 0 0 1 -31.09,0 H 1 V 2.25 A 1.24,1.24 0 0 1 2.25,1 Z"
         inkscape:connector-curvature="0"
         style="fill:#6e3ebb" />
      <g
         id="g296"
         class="cls-4"
         style="isolation:isolate">
        <path
           id="path298"
           class="cls-2"
           d="m 86.26,37.73 a 1.08,1.08 0 0 0 0.32,0.38 1.44,1.44 0 0 0 0.47,0.21 2,2 0 0 0 0.56,0.07 h 0.41 a 1.21,1.21 0 0 0 0.42,-0.13 0.8,0.8 0 0 0 0.32,-0.25 0.63,0.63 0 0 0 0.13,-0.41 0.6,0.6 0 0 0 -0.17,-0.44 1.39,1.39 0 0 0 -0.45,-0.28 4,4 0 0 0 -0.63,-0.19 L 86.93,36.5 a 5.5,5.5 0 0 1 -0.72,-0.23 2.37,2.37 0 0 1 -0.63,-0.34 1.57,1.57 0 0 1 -0.45,-0.54 1.54,1.54 0 0 1 -0.17,-0.77 1.8,1.8 0 0 1 0.21,-0.89 2,2 0 0 1 0.57,-0.62 2.69,2.69 0 0 1 0.8,-0.38 3.41,3.41 0 0 1 0.89,-0.12 4.09,4.09 0 0 1 1,0.12 2.38,2.38 0 0 1 0.84,0.38 1.79,1.79 0 0 1 0.59,0.66 2,2 0 0 1 0.22,1 h -1.41 a 1.3,1.3 0 0 0 -0.13,-0.49 0.84,0.84 0 0 0 -0.28,-0.31 1.29,1.29 0 0 0 -0.4,-0.16 2.56,2.56 0 0 0 -0.49,0 2,2 0 0 0 -0.35,0 1,1 0 0 0 -0.32,0.13 0.78,0.78 0 0 0 -0.24,0.24 0.63,0.63 0 0 0 -0.09,0.35 0.57,0.57 0 0 0 0.07,0.31 0.64,0.64 0 0 0 0.29,0.23 4,4 0 0 0 0.61,0.2 l 1,0.26 c 0.12,0 0.3,0.07 0.52,0.14 a 2.26,2.26 0 0 1 0.65,0.31 2,2 0 0 1 0.56,0.57 1.6,1.6 0 0 1 0.24,0.91 2,2 0 0 1 -0.18,0.85 1.79,1.79 0 0 1 -0.53,0.67 2.49,2.49 0 0 1 -0.86,0.44 4.23,4.23 0 0 1 -1.19,0.16 4.17,4.17 0 0 1 -1.06,-0.14 2.72,2.72 0 0 1 -0.91,-0.42 2.07,2.07 0 0 1 -0.85,-1.79 h 1.41 a 1.19,1.19 0 0 0 0.12,0.5 z"
           inkscape:connector-curvature="0"
           style="fill:#ffffff" />
        <path
           id="path300"
           class="cls-2"
           d="M 94.47,32.75 97,39.37 h -1.57 l -0.5,-1.48 h -2.47 l -0.52,1.48 H 90.47 L 93,32.75 Z m 0.08,4.06 -0.83,-2.43 v 0 l -0.86,2.43 z"
           inkscape:connector-curvature="0"
           style="fill:#ffffff" />
      </g>
      <g
         id="g302"
         class="cls-4"
         style="isolation:isolate">
        <path
           id="path304"
           class="cls-2"
           d="m 60,32.75 a 4.57,4.57 0 0 1 0.86,0.08 2.14,2.14 0 0 1 0.67,0.27 1.25,1.25 0 0 1 0.43,0.51 1.8,1.8 0 0 1 0.16,0.78 1.45,1.45 0 0 1 -0.23,0.83 1.58,1.58 0 0 1 -0.68,0.55 1.59,1.59 0 0 1 0.92,0.62 1.81,1.81 0 0 1 0.3,1.06 1.86,1.86 0 0 1 -0.19,0.87 1.67,1.67 0 0 1 -0.53,0.59 2.35,2.35 0 0 1 -0.75,0.35 3.58,3.58 0 0 1 -0.87,0.11 h -3.22 v -6.62 z m -0.19,2.68 a 1.08,1.08 0 0 0 0.64,-0.19 0.68,0.68 0 0 0 0.25,-0.6 0.86,0.86 0 0 0 -0.08,-0.38 0.61,0.61 0 0 0 -0.22,-0.26 0.88,0.88 0 0 0 -0.32,-0.12 2.43,2.43 0 0 0 -0.38,0 h -1.37 v 1.55 z m 0.09,2.81 a 1.75,1.75 0 0 0 0.4,-0.05 1,1 0 0 0 0.35,-0.13 0.78,0.78 0 0 0 0.24,-0.27 1,1 0 0 0 0.08,-0.43 0.83,0.83 0 0 0 -0.28,-0.72 1.23,1.23 0 0 0 -0.77,-0.22 h -1.59 v 1.82 z"
           inkscape:connector-curvature="0"
           style="fill:#ffffff" />
        <path
           id="path306"
           class="cls-2"
           d="m 62.69,32.75 h 1.63 l 1.55,2.61 1.55,-2.61 H 69 l -2.46,4.08 v 2.54 h -1.42 v -2.58 z"
           inkscape:connector-curvature="0"
           style="fill:#ffffff" />
      </g>
      <g
         id="g6316">
        <path
           id="path6318"
           class="cls-2"
           d="m 102.4,15 a 10.59,10.59 0 0 1 -21.17,0 v 0 a 10.59,10.59 0 0 1 21.17,0 z"
           inkscape:connector-curvature="0"
           style="fill:#ffffff" />
        <g
           id="g6320">
          <path
             id="path6322"
             class="cls-3"
             d="m 91.74,3.39 a 11,11 0 0 0 -8.15,3.36 11.31,11.31 0 0 0 -3.43,8.25 11.14,11.14 0 0 0 3.43,8.18 11.13,11.13 0 0 0 8.15,3.42 11.43,11.43 0 0 0 8.3,-3.45 A 11,11 0 0 0 103.35,15 11.47,11.47 0 0 0 91.74,3.39 Z m 0,2.08 a 9.09,9.09 0 0 1 6.71,2.79 9.09,9.09 0 0 1 2.81,6.74 8.84,8.84 0 0 1 -2.73,6.64 9.31,9.31 0 0 1 -6.76,2.84 9.16,9.16 0 0 1 -6.7,-2.81 A 9.11,9.11 0 0 1 82.25,15 9.22,9.22 0 0 1 85.1,8.26 9,9 0 0 1 91.77,5.47 Z"
             inkscape:connector-curvature="0"
             style="fill:#6e3ebb" />
          <path
             id="path6324"
             class="cls-3"
             d="m 86.6,13.34 a 4.94,4.94 0 0 1 5.09,-4.47 c 3.71,0 6,2.68 6,6.27 a 5.89,5.89 0 0 1 -6,6.2 5,5 0 0 1 -5.11,-4.53 h 2.92 c 0.08,1.56 1.1,2.11 2.54,2.11 1.65,0 2.72,-1.53 2.72,-3.87 0,-2.34 -0.92,-3.76 -2.66,-3.76 a 2.29,2.29 0 0 0 -2.6,2.05 h 0.85 l -2.35,2.3 -2.3,-2.3 z"
             inkscape:connector-curvature="0"
             style="fill:#6e3ebb" />
        </g>
      </g>
      <g
         id="g313">
        <circle
           id="circle315"
           class="cls-2"
           cx="63.360001"
           cy="15.22"
           r="10.74"
           style="fill:#ffffff" />
        <g
           id="g317">
          <path
             id="path319"
             class="cls-3"
             d="M 66.47,12.11 A 0.76,0.76 0 0 0 65.72,11.36 H 61 a 0.75,0.75 0 0 0 -0.75,0.75 v 4.74 h 1.32 v 5.62 h 3.59 v -5.62 h 1.33 v -4.74 z"
             inkscape:connector-curvature="0"
             style="fill:#6e3ebb" />
          <circle
             id="circle321"
             class="cls-3"
             cx="63.349998"
             cy="9.1099997"
             r="1.62"
             style="fill:#6e3ebb" />
        </g>
        <path
           id="path323"
           class="cls-5"
           d="m 63.33,3.39 a 11,11 0 0 0 -8.15,3.36 11.31,11.31 0 0 0 -3.43,8.25 11.15,11.15 0 0 0 3.43,8.18 11.13,11.13 0 0 0 8.15,3.42 11.43,11.43 0 0 0 8.3,-3.45 A 11,11 0 0 0 74.94,15 11.47,11.47 0 0 0 63.33,3.39 Z m 0,2.08 a 9.09,9.09 0 0 1 6.71,2.79 9.09,9.09 0 0 1 2.81,6.74 8.84,8.84 0 0 1 -2.73,6.64 9.31,9.31 0 0 1 -6.76,2.84 9.16,9.16 0 0 1 -6.7,-2.81 A 9.11,9.11 0 0 1 53.84,15 9.22,9.22 0 0 1 56.69,8.28 9,9 0 0 1 63.36,5.47 Z"
           inkscape:connector-curvature="0"
           style="fill:#6e3ebb;fill-rule:evenodd" />
      </g>
    </g>
  </g>
</svg>
