<?xml version="1.0" encoding="UTF-8" standalone="no"?>
<svg
   xmlns:dc="http://purl.org/dc/elements/1.1/"
   xmlns:cc="http://creativecommons.org/ns#"
   xmlns:rdf="http://www.w3.org/1999/02/22-rdf-syntax-ns#"
   xmlns:svg="http://www.w3.org/2000/svg"
   xmlns="http://www.w3.org/2000/svg"
   xmlns:sodipodi="http://sodipodi.sourceforge.net/DTD/sodipodi-0.dtd"
   xmlns:inkscape="http://www.inkscape.org/namespaces/inkscape"
   id="licences"
   viewBox="0 0 68.58271 24"
   version="1.1"
   sodipodi:docname="by.svg"
   inkscape:version="0.92.4 (5da689c313, 2019-01-14)"
   width="68.58271"
   height="24">
  <metadata
     id="metadata26">
    <rdf:RDF>
      <cc:Work
         rdf:about="">
        <dc:format>image/svg+xml</dc:format>
        <dc:type
           rdf:resource="http://purl.org/dc/dcmitype/StillImage" />
        <dc:title></dc:title>
      </cc:Work>
    </rdf:RDF>
  </metadata>
  <sodipodi:namedview
     pagecolor="#ffffff"
     bordercolor="#666666"
     borderopacity="1"
     objecttolerance="10"
     gridtolerance="10"
     guidetolerance="10"
     inkscape:pageopacity="0"
     inkscape:pageshadow="2"
     inkscape:window-width="1920"
     inkscape:window-height="1017"
     id="namedview24"
     showgrid="false"
     inkscape:zoom="1.4208334"
     inkscape:cx="-260.04804"
     inkscape:cy="-14.48287"
     inkscape:window-x="3832"
     inkscape:window-y="515"
     inkscape:window-maximized="1"
     inkscape:current-layer="licences"
     fit-margin-top="0"
     fit-margin-left="0"
     fit-margin-right="0"
     fit-margin-bottom="0" />
  <defs
     id="defs4">
    <style
       id="style2">.cls-1{fill:#e7d8fe;}.cls-2,.cls-5{fill:#6e3ebb;}.cls-3{isolation:isolate;}.cls-4{fill:#fff;}.cls-5{fill-rule:evenodd;}</style>
  </defs>
  <g
     id="layer1"
     transform="matrix(0.57142736,0,0,0.57142736,0,5.0794555e-5)">
    <g
       id="g260">
      <path
         id="path3817"
         class="cls-1"
         d="m 3.14,0.51 113.35,0.2 c 1.59,0 3,-0.24 3,3.16 L 119.35,41.2 H 0.28 V 3.73 c 0,-1.67 0.16,-3.22 2.86,-3.22 z"
         inkscape:connector-curvature="0"
         style="fill:#e7d8fe" />
      <path
         id="path263"
         class="cls-2"
         d="M 117.75,0 H 2.25 A 2.25,2.25 0 0 0 0,2.25 V 41.49 A 0.51,0.51 0 0 0 0.51,42 h 119 a 0.51,0.51 0 0 0 0.51,-0.51 V 2.25 A 2.25,2.25 0 0 0 117.75,0 Z M 2.25,1 h 115.5 A 1.23,1.23 0 0 1 119,2.25 V 29.52 H 36.16 a 17.74,17.74 0 0 1 -31.09,0 H 1 V 2.25 A 1.23,1.23 0 0 1 2.25,1 Z"
         inkscape:connector-curvature="0"
         style="fill:#6e3ebb" />
      <g
         id="g265"
         class="cls-3"
         style="isolation:isolate">
        <path
           id="path267"
           class="cls-4"
           d="m 73.81,32.75 a 4.57,4.57 0 0 1 0.86,0.08 2,2 0 0 1 0.67,0.27 1.25,1.25 0 0 1 0.43,0.51 1.67,1.67 0 0 1 0.16,0.78 1.45,1.45 0 0 1 -0.23,0.83 1.61,1.61 0 0 1 -0.67,0.55 1.56,1.56 0 0 1 0.91,0.62 1.82,1.82 0 0 1 0.31,1.06 1.86,1.86 0 0 1 -0.2,0.87 1.65,1.65 0 0 1 -0.52,0.59 2.4,2.4 0 0 1 -0.76,0.35 3.58,3.58 0 0 1 -0.87,0.11 h -3.21 v -6.62 z m -0.19,2.68 a 1.06,1.06 0 0 0 0.64,-0.19 0.68,0.68 0 0 0 0.25,-0.6 0.74,0.74 0 0 0 -0.08,-0.38 0.61,0.61 0 0 0 -0.22,-0.23 0.88,0.88 0 0 0 -0.32,-0.12 2.34,2.34 0 0 0 -0.38,0 h -1.36 v 1.55 z m 0.09,2.81 a 1.84,1.84 0 0 0 0.41,-0.05 0.93,0.93 0 0 0 0.34,-0.13 0.78,0.78 0 0 0 0.24,-0.27 0.89,0.89 0 0 0 0.09,-0.43 0.84,0.84 0 0 0 -0.29,-0.72 1.2,1.2 0 0 0 -0.76,-0.22 h -1.59 v 1.82 z"
           inkscape:connector-curvature="0"
           style="fill:#ffffff" />
        <path
           id="path269"
           class="cls-4"
           d="m 76.5,32.75 h 1.64 l 1.55,2.61 1.54,-2.61 h 1.62 l -2.46,4.08 v 2.54 h -1.46 v -2.58 z"
           inkscape:connector-curvature="0"
           style="fill:#ffffff" />
      </g>
      <g
         id="g5908">
        <path
           id="path5906"
           class="cls-4"
           d="M 34.25,19.61 A 13.64,13.64 0 1 1 7,19.62 v 0 a 13.64,13.64 0 1 1 27.27,0 z"
           inkscape:connector-curvature="0"
           style="fill:#ffffff" />
        <g
           id="g5706">
          <path
             id="path5708"
             class="cls-2"
             d="m 31.7,8.5 a 15.09,15.09 0 0 1 4.54,11.11 14.83,14.83 0 0 1 -4.46,11 A 15.38,15.38 0 0 1 20.6,35.25 15,15 0 0 1 9.6,30.63 15.05,15.05 0 0 1 5,19.61 15.33,15.33 0 0 1 9.61,8.5 14.9,14.9 0 0 1 20.6,4 15.09,15.09 0 0 1 31.7,8.5 Z m -20,2 a 12.46,12.46 0 0 0 -3.84,9.07 12.3,12.3 0 0 0 3.8,9 12.33,12.33 0 0 0 9,3.79 12.55,12.55 0 0 0 9.11,-3.83 12,12 0 0 0 3.68,-9 12.38,12.38 0 0 0 -3.74,-9.09 12.34,12.34 0 0 0 -9,-3.74 12.09,12.09 0 0 0 -9.06,3.84 z m 6.73,7.54 a 1.89,1.89 0 0 0 -1.76,-1.27 c -1.38,0 -2.07,0.93 -2.07,2.78 0,1.85 0.69,2.78 2.07,2.78 A 2,2 0 0 0 18.57,21 l 1.91,1 A 4.42,4.42 0 0 1 16.38,24.43 4.51,4.51 0 0 1 13,23.17 4.85,4.85 0 0 1 11.73,19.61 4.79,4.79 0 0 1 13.04,16.06 4.42,4.42 0 0 1 16.3,14.75 4.34,4.34 0 0 1 20.44,17 Z m 9,0 a 1.87,1.87 0 0 0 -1.72,-1.27 c -1.41,0 -2.11,0.93 -2.11,2.78 0,1.85 0.7,2.78 2.11,2.78 A 1.93,1.93 0 0 0 27.56,21 l 2,1 a 4.41,4.41 0 0 1 -4.09,2.43 4.52,4.52 0 0 1 -3.37,-1.29 4.89,4.89 0 0 1 -1.27,-3.56 4.86,4.86 0 0 1 1.29,-3.55 4.41,4.41 0 0 1 3.27,-1.31 4.33,4.33 0 0 1 4.08,2.28 z"
             inkscape:connector-curvature="0"
             style="fill:#6e3ebb" />
        </g>
      </g>
      <g
         id="g275">
        <circle
           id="circle277"
           class="cls-4"
           cx="76.269997"
           cy="15.22"
           r="10.74"
           style="fill:#ffffff" />
        <g
           id="g279">
          <path
             id="path281"
             class="cls-2"
             d="m 79.37,12.11 a 0.75,0.75 0 0 0 -0.74,-0.75 h -4.75 a 0.76,0.76 0 0 0 -0.75,0.75 v 4.74 h 1.33 v 5.62 h 3.59 v -5.62 h 1.32 z"
             inkscape:connector-curvature="0"
             style="fill:#6e3ebb" />
          <circle
             id="circle283"
             class="cls-2"
             cx="76.25"
             cy="9.1099997"
             r="1.62"
             style="fill:#6e3ebb" />
        </g>
        <path
           id="path285"
           class="cls-5"
           d="m 76.24,3.39 a 11.08,11.08 0 0 0 -8.16,3.36 11.34,11.34 0 0 0 -3.42,8.25 11.15,11.15 0 0 0 3.42,8.17 11.17,11.17 0 0 0 8.16,3.42 11.44,11.44 0 0 0 8.3,-3.44 A 11,11 0 0 0 87.85,15 11.49,11.49 0 0 0 76.24,3.39 Z m 0,2.08 A 9.05,9.05 0 0 1 83,8.26 9.06,9.06 0 0 1 85.76,15 8.84,8.84 0 0 1 83,21.62 9.31,9.31 0 0 1 76.24,24.46 9.2,9.2 0 0 1 69.53,21.65 9.14,9.14 0 0 1 66.75,15 9.25,9.25 0 0 1 69.59,8.28 9,9 0 0 1 76.27,5.47 Z"
           inkscape:connector-curvature="0"
           style="fill:#6e3ebb;fill-rule:evenodd" />
      </g>
    </g>
  </g>
</svg>
