<?xml version="1.0" encoding="UTF-8" standalone="no"?>
<svg
   xmlns:dc="http://purl.org/dc/elements/1.1/"
   xmlns:cc="http://creativecommons.org/ns#"
   xmlns:rdf="http://www.w3.org/1999/02/22-rdf-syntax-ns#"
   xmlns:svg="http://www.w3.org/2000/svg"
   xmlns="http://www.w3.org/2000/svg"
   xmlns:sodipodi="http://sodipodi.sourceforge.net/DTD/sodipodi-0.dtd"
   xmlns:inkscape="http://www.inkscape.org/namespaces/inkscape"
   id="licences"
   viewBox="0 0 68.129051 24"
   version="1.1"
   sodipodi:docname="zero.svg"
   width="68.129051"
   height="24"
   inkscape:version="0.92.4 (5da689c313, 2019-01-14)">
  <metadata
     id="metadata45">
    <rdf:RDF>
      <cc:Work
         rdf:about="">
        <dc:format>image/svg+xml</dc:format>
        <dc:type
           rdf:resource="http://purl.org/dc/dcmitype/StillImage" />
        <dc:title></dc:title>
      </cc:Work>
    </rdf:RDF>
  </metadata>
  <sodipodi:namedview
     pagecolor="#ffffff"
     bordercolor="#666666"
     borderopacity="1"
     objecttolerance="10"
     gridtolerance="10"
     guidetolerance="10"
     inkscape:pageopacity="0"
     inkscape:pageshadow="2"
     inkscape:window-width="1920"
     inkscape:window-height="1017"
     id="namedview43"
     showgrid="false"
     fit-margin-top="0"
     fit-margin-left="0"
     fit-margin-right="0"
     fit-margin-bottom="0"
     inkscape:zoom="1.9375"
     inkscape:cx="-188.53061"
     inkscape:cy="-14.200037"
     inkscape:window-x="3832"
     inkscape:window-y="515"
     inkscape:window-maximized="1"
     inkscape:current-layer="licences" />
  <defs
     id="defs4">
    <style
       id="style2">.cls-1{fill:#fff;}.cls-2{fill:#6e3ebb;}</style>
  </defs>
  <path
     class="cls-1"
     d="m 1.7806686,0.3716129 64.3587094,0.116129 c 0.898064,0 1.703226,-0.1316129 1.703226,1.803871 L 67.765185,23.628387 H 0.1626041 V 2.2141935 c 0,-0.952258 0.0851613,-1.8425806 1.6180645,-1.8425806 z"
     id="path6"
     inkscape:connector-curvature="0"
     style="fill:#ffffff;stroke-width:0.77419353" />
  <ellipse
     class="cls-1"
     cx="11.140669"
     cy="12"
     rx="8.5935488"
     ry="8.6477413"
     id="ellipse8"
     style="fill:#ffffff;stroke-width:0.77419353" />
  <path
     class="cls-2"
     d="M 18.402604,3.1432258 A 11.032258,11.032258 0 0 1 19.10712,20.291613 H 67.772926 V 3.1432258 Z"
     id="path10"
     inkscape:connector-curvature="0"
     style="fill:#6e3ebb;stroke-width:0.77419353" />
  <path
     class="cls-1"
     d="m 28.056798,5.852903 a 2.0748387,2.0748387 0 0 1 0.774193,0.131613 1.4322581,1.4322581 0 0 1 0.51871,0.356129 1.2696774,1.2696774 0 0 1 0.294193,0.503226 1.8270968,1.8270968 0 0 1 0.0929,0.580645 1.8967742,1.8967742 0 0 1 -0.0929,0.580646 1.3548387,1.3548387 0 0 1 -0.774193,0.851612 1.92,1.92 0 0 1 -0.774194,0.139355 h -1.16129 v 1.749677 H 25.858088 V 5.852903 Z m -0.294194,2.322581 a 2.6632258,2.6632258 0 0 0 0.356129,0 0.82838712,0.82838712 0 0 0 0.301935,-0.108387 0.48,0.48 0 0 0 0.20129,-0.224516 0.77419355,0.77419355 0 0 0 0.08516,-0.371613 A 0.77419355,0.77419355 0 0 0 28.645188,7.045161 0.56516129,0.56516129 0 0 0 28.443897,6.820645 0.92903224,0.92903224 0 0 0 28.141961,6.72 a 1.796129,1.796129 0 0 0 -0.356128,0 H 26.93422 v 1.470968 z"
     id="path12"
     inkscape:connector-curvature="0"
     style="fill:#ffffff;stroke-width:0.77419353" />
  <path
     class="cls-1"
     d="m 34.258088,10.374194 a 2.6787097,2.6787097 0 0 1 -3.096774,0 1.8890322,1.8890322 0 0 1 -0.541936,-1.47871 V 5.852903 h 1.12258 v 3.042581 a 2.276129,2.276129 0 0 0 0,0.394838 0.88258064,0.88258064 0 0 0 0.139356,0.340646 0.89806448,0.89806448 0 0 0 0.309677,0.24 1.1922581,1.1922581 0 0 0 0.51871,0.0929 0.98322584,0.98322584 0 0 0 0.774193,-0.263226 1.2077419,1.2077419 0 0 0 0.216774,-0.774193 V 5.8529 h 1.138065 v 3.042581 a 1.8503226,1.8503226 0 0 1 -0.580645,1.47871 z"
     id="path14"
     inkscape:connector-curvature="0"
     style="fill:#ffffff;stroke-width:0.77419353" />
  <path
     class="cls-1"
     d="m 38.376798,5.852903 a 3.2129032,3.2129032 0 0 1 0.634838,0.06194 1.323871,1.323871 0 0 1 0.472258,0.201291 0.92903224,0.92903224 0 0 1 0.31742,0.371613 1.2929032,1.2929032 0 0 1 0.116128,0.580645 1.0219355,1.0219355 0 0 1 -0.170322,0.611613 1.2,1.2 0 0 1 -0.495484,0.410322 1.1612903,1.1612903 0 0 1 0.673549,0.456775 1.3625806,1.3625806 0 0 1 0.216773,0.774193 1.3780645,1.3780645 0 0 1 -0.139354,0.642581 1.3316129,1.3316129 0 0 1 -0.387097,0.441291 1.6335484,1.6335484 0 0 1 -0.549677,0.255483 2.5006452,2.5006452 0 0 1 -0.634839,0.07742 H 36.10841 V 5.852912 Z m -0.131613,1.981935 a 0.77419355,0.77419355 0 0 0 0.464516,-0.139354 0.51870968,0.51870968 0 0 0 0.185806,-0.449032 0.61935484,0.61935484 0 0 0 -0.06194,-0.27871 0.43354838,0.43354838 0 0 0 -0.12387,-0.170323 0.77419355,0.77419355 0 0 0 -0.24,-0.08516 1.5483871,1.5483871 0 0 0 -0.270968,0 H 37.16131 v 1.145807 z m 0.05419,2.07484 a 1.2464516,1.2464516 0 0 0 0.301935,0 0.68129032,0.68129032 0 0 0 0.255484,-0.100646 0.51870968,0.51870968 0 0 0 0.170322,-0.193548 0.64258065,0.64258065 0 0 0 0.06968,-0.325162 0.62709678,0.62709678 0 0 0 -0.209032,-0.534193 0.92129032,0.92129032 0 0 0 -0.565161,-0.162581 h -1.161291 v 1.347097 h 1.138065 z"
     id="path16"
     inkscape:connector-curvature="0"
     style="fill:#ffffff;stroke-width:0.77419353" />
  <path
     class="cls-1"
     d="m 42.301958,5.852903 v 3.994839 h 2.376775 v 0.898064 H 41.233571 V 5.852903 Z"
     id="path18"
     inkscape:connector-curvature="0"
     style="fill:#ffffff;stroke-width:0.77419353" />
  <path
     class="cls-1"
     d="m 46.645185,5.852903 v 4.892903 H 45.576798 V 5.852903 Z"
     id="path20"
     inkscape:connector-curvature="0"
     style="fill:#ffffff;stroke-width:0.77419353" />
  <path
     class="cls-1"
     d="m 51.096798,7.16129 a 1.0064516,1.0064516 0 0 0 -0.24,-0.270967 1.1148387,1.1148387 0 0 0 -0.325162,-0.185807 0.98322584,0.98322584 0 0 0 -0.371613,-0.06194 1.2619355,1.2619355 0 0 0 -0.619355,0.139355 1.1148387,1.1148387 0 0 0 -0.40258,0.379355 1.6722581,1.6722581 0 0 0 -0.232258,0.534193 2.7793548,2.7793548 0 0 0 -0.06968,0.627097 2.5625806,2.5625806 0 0 0 0.06968,0.596129 1.5483871,1.5483871 0 0 0 0.232258,0.526452 1.1612903,1.1612903 0 0 0 0.40258,0.371612 1.2619355,1.2619355 0 0 0 0.619355,0.147097 0.99096776,0.99096776 0 0 0 0.774194,-0.301936 1.44,1.44 0 0 0 0.332903,-0.774193 h 0.990968 a 2.5548387,2.5548387 0 0 1 -0.209033,0.828387 2.0903226,2.0903226 0 0 1 -0.449032,0.634839 1.9354838,1.9354838 0 0 1 -0.658065,0.394838 2.3225806,2.3225806 0 0 1 -0.820644,0.139356 2.4619355,2.4619355 0 0 1 -1.006452,-0.201291 1.9587097,1.9587097 0 0 1 -0.774194,-0.534193 2.3225806,2.3225806 0 0 1 -0.472258,-0.774194 3.003871,3.003871 0 0 1 -0.16258,-0.99871 3.1432258,3.1432258 0 0 1 0.16258,-1.021936 2.3612903,2.3612903 0 0 1 0.472258,-0.774192 1.9896774,1.9896774 0 0 1 0.774194,-0.549678 2.4309678,2.4309678 0 0 1 1.006452,-0.20129 2.4696774,2.4696774 0 0 1 0.774193,0.116129 2.0051613,2.0051613 0 0 1 0.634839,0.340645 1.796129,1.796129 0 0 1 0.472258,0.549677 1.9354838,1.9354838 0 0 1 0.232258,0.774193 h -1.052904 a 0.8206452,0.8206452 0 0 0 -0.08516,-0.449032 z"
     id="path22"
     inkscape:connector-curvature="0"
     style="fill:#ffffff;stroke-width:0.77419353" />
  <path
     class="cls-1"
     d="m 27.963894,12.712258 a 2.5006452,2.5006452 0 0 1 0.874839,0.147097 1.8348387,1.8348387 0 0 1 0.696774,0.449032 2.0283871,2.0283871 0 0 1 0.464516,0.774194 2.9574194,2.9574194 0 0 1 0.193549,1.045161 3.3677419,3.3677419 0 0 1 -0.139355,0.990968 2.2219355,2.2219355 0 0 1 -0.410323,0.774193 2.0980645,2.0980645 0 0 1 -0.689032,0.51871 2.3225806,2.3225806 0 0 1 -0.975484,0.185806 h -2.12129 v -4.885161 z m -0.0929,3.987097 a 1.2774194,1.2774194 0 0 0 0.449032,-0.07742 0.94451616,0.94451616 0 0 0 0.387097,-0.247741 1.1612903,1.1612903 0 0 0 0.270968,-0.456775 1.9354838,1.9354838 0 0 0 0.108387,-0.68129 2.5935484,2.5935484 0 0 0 -0.07742,-0.673548 1.3470968,1.3470968 0 0 0 -0.232257,-0.510968 1.0916129,1.0916129 0 0 0 -0.433549,-0.325161 1.6877419,1.6877419 0 0 0 -0.665807,-0.108387 h -0.774193 v 3.096773 z"
     id="path24"
     inkscape:connector-curvature="0"
     style="fill:#ffffff;stroke-width:0.77419353" />
  <path
     class="cls-1"
     d="m 31.200023,14.16 a 2.4,2.4 0 0 1 0.472259,-0.820645 2.0748387,2.0748387 0 0 1 0.774193,-0.549677 2.4309678,2.4309678 0 0 1 1.006451,-0.201291 2.4619355,2.4619355 0 0 1 1.006452,0.201291 2.2219355,2.2219355 0 0 1 0.774194,0.549677 2.3225806,2.3225806 0 0 1 0.464516,0.820645 2.8722581,2.8722581 0 0 1 0.170322,1.014194 2.7870968,2.7870968 0 0 1 -0.170322,0.998709 2.3612903,2.3612903 0 0 1 -0.464516,0.774194 2.1987097,2.1987097 0 0 1 -0.774194,0.541935 2.5625806,2.5625806 0 0 1 -1.006452,0.193549 A 2.5935484,2.5935484 0 0 1 32.446475,17.489032 2.0593548,2.0593548 0 0 1 31.672282,16.947097 2.2606452,2.2606452 0 0 1 31.200023,16.172903 2.9729032,2.9729032 0 0 1 31.037442,15.174194 3.0967742,3.0967742 0 0 1 31.200023,14.16 Z m 0.975484,1.618065 a 1.5483871,1.5483871 0 0 0 0.232258,0.526451 1.1612903,1.1612903 0 0 0 0.402581,0.371613 1.4322581,1.4322581 0 0 0 1.230968,0 1.1845162,1.1845162 0 0 0 0.410322,-0.371613 1.6877419,1.6877419 0 0 0 0.224516,-0.526451 2.5780645,2.5780645 0 0 0 0.06968,-0.603871 2.763871,2.763871 0 0 0 -0.06968,-0.619356 1.7806452,1.7806452 0 0 0 -0.224516,-0.541935 1.3006452,1.3006452 0 0 0 -1.64129,-0.371613 1.1612903,1.1612903 0 0 0 -0.402581,0.371613 1.6180645,1.6180645 0 0 0 -0.232258,0.541935 2.763871,2.763871 0 0 0 -0.06968,0.619356 2.5780645,2.5780645 0 0 0 0.06968,0.603871 z"
     id="path26"
     inkscape:connector-curvature="0"
     style="fill:#ffffff;stroke-width:0.77419353" />
  <path
     class="cls-1"
     d="M 38.392282,12.712258 39.530346,16.08 v 0 l 1.083871,-3.367742 h 1.501935 v 4.892904 h -1.006451 v -3.468388 0 l -1.184516,3.468388 h -0.828387 l -1.161291,-3.43742 v 0 3.43742 h -1.045161 v -4.892904 z"
     id="path28"
     inkscape:connector-curvature="0"
     style="fill:#ffffff;stroke-width:0.77419353" />
  <path
     class="cls-1"
     d="m 45.878733,12.712258 1.819355,4.892904 h -1.107097 l -0.371613,-1.091614 h -1.819355 l -0.379355,1.091614 h -1.076129 l 1.842581,-4.892904 z m 0.06194,3.003871 -0.611613,-1.780645 v 0 l -0.627097,1.796129 z"
     id="path30"
     inkscape:connector-curvature="0"
     style="fill:#ffffff;stroke-width:0.77419353" />
  <path
     class="cls-1"
     d="m 49.58712,12.712258 v 4.892904 h -1.068387 v -4.892904 z"
     id="path32"
     inkscape:connector-curvature="0"
     style="fill:#ffffff;stroke-width:0.77419353" />
  <path
     class="cls-1"
     d="m 51.94841,12.712258 2.036129,3.28258 v 0 -3.28258 h 0.983226 v 4.892904 h -1.045161 l -2.051613,-3.27484 v 0 3.27484 h -0.983226 v -4.892904 z"
     id="path34"
     inkscape:connector-curvature="0"
     style="fill:#ffffff;stroke-width:0.77419353" />
  <path
     class="cls-2"
     d="M 66.851636,0 H 1.2774428 A 1.2774194,1.2774194 0 0 0 2.3460411e-5,1.2851613 V 23.736774 A 0.29419355,0.29419355 0 0 0 0.28647507,24 H 67.842604 a 0.29419355,0.29419355 0 0 0 0.286451,-0.286452 V 1.2619355 A 1.2774194,1.2774194 0 0 0 66.851636,0 Z M 1.2774428,0.5806452 H 66.851636 A 0.69677419,0.69677419 0 0 1 67.54841,1.2851613 V 23.396129 H 0.58066862 V 1.2851613 A 0.69677419,0.69677419 0 0 1 1.2774428,0.5806452 Z"
     id="path36"
     inkscape:connector-curvature="0"
     style="fill:#6e3ebb;stroke-width:0.77419353" />
  <ellipse
     class="cls-1"
     cx="11.349701"
     cy="12.123871"
     rx="8.5161295"
     ry="8.5780649"
     id="ellipse38"
     style="fill:#ffffff;stroke-width:0.77419353" />
  <path
     id="text2809"
     class="cls-2"
     d="m 11.396152,6.774194 c -2.9883872,0 -3.7393543,2.833548 -3.7393543,5.24129 0,2.407742 0.7741935,5.249032 3.7393543,5.249032 2.965162,0 3.739355,-2.84129 3.739355,-5.249032 0,-2.407742 -0.750968,-5.24129 -3.739355,-5.24129 z m 0,1.974193 a 1.2077419,1.2077419 0 0 1 0.340646,0.04645 0.58064516,0.58064516 0 0 1 0.108387,0.774194 L 9.8555072,13.25419 a 9.7006448,9.7006448 0 0 1 -0.06968,-1.261935 c 0,-1.03742 0.06968,-3.243871 1.6103228,-3.243871 z m 1.494194,1.695484 a 9.2903224,9.2903224 0 0 1 0.116129,1.548387 c 0,1.060645 -0.06968,3.274839 -1.610323,3.274839 a 1.5483871,1.5483871 0 0 1 -0.332903,-0.03871 h -0.06194 -0.0929 c -0.340646,-0.147097 -0.55742,-0.410323 -0.247743,-0.882581 z"
     inkscape:connector-curvature="0"
     style="fill:#6e3ebb;stroke-width:0.77419353" />
  <path
     id="path2815"
     class="cls-2"
     d="m 11.372926,2.9032258 a 8.5161288,8.5161288 0 0 0 -6.3561283,2.6477422 9.2283872,9.2283872 0 0 0 -1.9974194,3.00387 9.150968,9.150968 0 0 0 0,6.967743 9.2206448,9.2206448 0 0 0 1.9664516,2.965161 9.5380648,9.5380648 0 0 0 2.9496775,2.005161 8.9883872,8.9883872 0 0 0 6.9212906,0 A 9.390968,9.390968 0 0 0 17.86841,18.48 8.3380648,8.3380648 0 0 0 19.796152,15.6 9.2903224,9.2903224 0 0 0 20.454217,12.085162 9.2903224,9.2903224 0 0 0 19.796152,8.516129 8.7406448,8.7406448 0 0 0 17.852926,5.574194 a 8.7948384,8.7948384 0 0 0 -6.48,-2.6709682 z m 0.03871,1.6412902 a 7.1380645,7.1380645 0 0 1 5.256775,2.190968 7.3548387,7.3548387 0 0 1 1.602581,2.415484 7.6180645,7.6180645 0 0 1 0.549676,2.872258 7.0296774,7.0296774 0 0 1 -2.121289,5.218064 7.7419355,7.7419355 0 0 1 -2.47742,1.649032 7.1767742,7.1767742 0 0 1 -2.810323,0.565162 A 7.2541935,7.2541935 0 0 1 8.601314,18.898065 7.5096774,7.5096774 0 0 1 6.1935722,17.272258 7.7419355,7.7419355 0 0 1 4.54454,14.849032 a 7.3858065,7.3858065 0 0 1 0,-5.667097 7.8735484,7.8735484 0 0 1 1.6490322,-2.454193 7.0064516,7.0064516 0 0 1 5.2180638,-2.183226 z"
     inkscape:connector-curvature="0"
     style="fill:#6e3ebb;stroke-width:0.77419353" />
</svg>
