<svg id="e1y1xwf29drv1" xmlns="http://www.w3.org/2000/svg" xmlns:xlink="http://www.w3.org/1999/xlink" viewBox="0 0 31 31" shape-rendering="geometricPrecision" text-rendering="geometricPrecision" width="31" height="31"><style><![CDATA[#e1y1xwf29drv4_tr {animation: e1y1xwf29drv4_tr__tr 800ms linear infinite normal backwards}@keyframes e1y1xwf29drv4_tr__tr { 0% {transform: translate(15.500000px,15.500000px) rotate(0deg)} 100% {transform: translate(15.500000px,15.500000px) rotate(360deg)} }]]></style><g id="e1y1xwf29drv2"><path id="e1y1xwf29drv3" d="M15.478022,0C24.038436,0,30.978022,6.939586,30.978022,15.500000C30.978022,24.060414,24.038436,31,15.478022,31C6.917608,31,-0.021978,24.060414,-0.021978,15.500000C-0.021978,6.939586,6.917608,0,15.478022,0ZM15.478022,3C8.574463,3,2.978022,8.596441,2.978022,15.500000C2.978022,22.403559,8.574463,28,15.478022,28C22.381581,28,27.978022,22.403559,27.978022,15.500000C27.978022,8.596441,22.381581,3,15.478022,3ZM15.500000,8C16.279696,8,16.920449,8.594888,16.993133,9.355540L17,9.500000L16.999022,18.077000L19.138455,15.939340C19.724241,15.353553,20.673988,15.353553,21.259775,15.939340C21.808950,16.488515,21.843273,17.357577,21.362745,17.946738L21.259775,18.060660L16.649228,22.671207C16.100054,23.220381,15.230991,23.254705,14.641831,22.774177L14.527908,22.671207L9.917362,18.060660C9.331575,17.474874,9.331575,16.525126,9.917362,15.939340C10.466537,15.390165,11.335599,15.355842,11.924760,15.836370L12.038682,15.939340L13.999022,17.899000L14,9.500000C14,8.671573,14.671573,8,15.500000,8Z" fill="rgb(223,223,223)" stroke="none" stroke-width="1"/><g id="e1y1xwf29drv4_tr" transform="translate(15.500000,15.500000) rotate(0)"><path id="e1y1xwf29drv4" d="M15.478022,0C24.038436,0,30.978022,6.939586,30.978022,15.500000C30.978022,16.328427,30.306449,17,29.478022,17C28.649595,17,27.978022,16.328427,27.978022,15.500000C27.978022,8.596441,22.381581,3,15.478022,3C14.649595,3,13.978022,2.328427,13.978022,1.500000C13.978022,0.671573,14.649595,0,15.478022,0Z" transform="translate(-15.500000,-15.500000)" fill="rgb(178,131,252)" stroke="none" stroke-width="1"/></g></g></svg>