<?xml version="1.0" encoding="UTF-8"?>
<svg width="31px" height="31px" viewBox="0 0 31 31" version="1.1" xmlns="http://www.w3.org/2000/svg" xmlns:xlink="http://www.w3.org/1999/xlink">
    <title>telechargement-dispo-2</title>
    <g id="telechargement-dispo-2" stroke="none" stroke-width="1" fill="none" fill-rule="evenodd">
        <path d="M15.478022,0 C24.0384356,0 30.978022,6.93958638 30.978022,15.5 C30.978022,24.0604136 24.0384356,31 15.478022,31 C6.91760836,31 -0.021978022,24.0604136 -0.021978022,15.5 C-0.021978022,6.93958638 6.91760836,0 15.478022,0 Z M15.478022,3 C8.57446261,3 2.97802198,8.59644063 2.97802198,15.5 C2.97802198,22.4035594 8.57446261,28 15.478022,28 C22.3815814,28 27.978022,22.4035594 27.978022,15.5 C27.978022,8.59644063 22.3815814,3 15.478022,3 Z M15.5,8 C16.2796961,8 16.9204487,8.59488808 16.9931334,9.35553999 L17,9.5 L16.999022,18.077 L19.1384545,15.9393398 C19.724241,15.3535534 20.6739884,15.3535534 21.2597749,15.9393398 C21.8089496,16.4885146 21.8432731,17.357577 21.3627451,17.9467378 L21.2597749,18.0606602 L16.6492285,22.6712065 C16.1000537,23.2203813 15.2309913,23.2547047 14.6418306,22.7741768 L14.5279082,22.6712065 L9.91736181,18.0606602 C9.33157537,17.4748737 9.33157537,16.5251263 9.91736181,15.9393398 C10.4665366,15.390165 11.335599,15.3558416 11.9247597,15.8363696 L12.0386821,15.9393398 L13.999022,17.899 L14,9.5 C14,8.67157288 14.6715729,8 15.5,8 Z" id="Combined-Shape" fill="#DFDFDF" fill-rule="nonzero"></path>
        <circle id="Oval" stroke="#FFFFFF" stroke-width="2" fill="#B283FC" cx="25" cy="6" r="5"></circle>
    </g>
</svg>